{"glyphs":{"0":{"ha":758,"x_min":65,"x_max":704,"o":"m 704 465 q 638 119 704 235 q 383 -15 560 -15 q 129 115 204 -15 q 65 469 65 228 q 121 814 65 697 q 386 972 197 972 q 650 815 576 972 q 704 465 704 700 m 533 479 q 503 755 533 661 q 386 849 472 849 q 266 749 296 849 q 236 478 236 650 q 269 199 236 294 q 385 108 301 108 q 506 207 475 108 q 533 479 533 296 z "},"1":{"ha":489,"x_min":33,"x_max":389,"o":"m 389 0 q 307 8 351 8 q 211 0 261 8 q 217 419 217 196 l 217 713 q 207 733 217 731 q 190 726 203 735 q 171 717 178 718 q 33 688 92 696 q 38 749 38 710 q 33 806 38 786 q 272 964 215 840 q 328 958 296 958 q 389 964 360 958 q 383 481 383 718 q 389 0 383 236 z "},"2":{"ha":758,"x_min":64,"x_max":685,"o":"m 685 0 q 378 6 557 6 q 69 0 197 6 l 69 15 q 67 110 69 51 q 64 149 67 114 q 314 367 151 219 q 456 526 415 469 q 515 689 515 613 q 372 843 515 843 q 229 679 229 843 q 231 632 229 656 q 151 639 193 639 q 72 632 124 639 q 71 669 71 661 q 158 896 71 815 q 379 974 240 974 q 601 899 518 974 q 685 692 685 825 q 596 457 685 571 q 297 185 528 369 q 264 163 293 182 q 244 144 244 151 q 261 136 244 136 q 289 139 267 136 q 319 142 311 142 q 685 149 525 142 q 679 68 679 113 q 685 0 679 32 z "},"3":{"ha":758,"x_min":58,"x_max":704,"o":"m 704 267 q 610 60 704 135 q 363 -15 517 -15 q 151 46 232 -15 q 60 231 67 111 q 58 281 58 253 q 146 274 104 274 q 221 281 188 274 q 221 261 221 264 q 368 111 229 111 q 526 261 526 111 q 356 431 526 431 q 307 429 340 431 q 254 428 274 428 q 260 489 260 463 q 254 547 260 513 q 309 546 274 547 q 360 544 344 544 q 513 696 513 544 q 372 844 513 844 q 231 689 233 844 q 147 697 182 697 q 72 689 110 697 q 74 738 72 718 q 171 914 85 850 q 376 974 251 974 q 601 899 518 974 q 681 708 681 828 q 564 515 681 578 q 531 506 558 513 q 511 493 511 501 q 533 481 511 485 q 567 474 564 475 q 704 267 704 415 z "},"4":{"ha":758,"x_min":40,"x_max":718,"o":"m 718 211 q 614 214 653 214 q 583 183 583 214 q 588 0 583 125 q 507 6 553 6 q 424 0 460 6 q 428 183 428 103 q 422 210 428 204 q 394 215 415 215 q 40 211 186 215 q 43 274 43 232 q 40 328 43 306 q 382 961 274 740 q 488 956 422 956 q 586 961 544 956 q 582 369 582 749 q 610 339 582 339 q 718 342 622 339 q 714 281 714 313 q 718 211 714 238 m 432 767 q 425 778 432 778 q 403 747 417 778 q 376 693 394 729 q 203 369 319 585 q 189 346 189 344 q 197 338 189 339 q 218 339 186 339 l 399 339 q 429 369 429 339 l 429 493 q 428 592 429 517 q 428 681 428 651 q 429 736 428 715 q 432 767 432 778 z "},"5":{"ha":736,"x_min":57,"x_max":672,"o":"m 672 328 q 593 81 672 171 q 354 -14 510 -14 q 57 257 67 -14 q 57 288 57 269 q 138 281 93 281 q 214 288 176 281 q 213 260 213 265 q 351 111 218 111 q 474 168 436 111 q 506 322 506 218 q 353 515 506 515 q 208 442 250 515 q 110 457 171 456 q 75 457 86 457 q 97 911 97 611 l 97 961 q 325 957 185 957 q 631 961 463 957 q 625 882 625 929 q 629 818 625 851 q 272 822 493 822 q 244 816 251 822 q 235 789 236 810 q 226 624 235 725 q 219 590 219 588 q 228 581 219 581 q 256 597 233 581 q 400 642 314 642 q 603 559 533 642 q 672 328 672 476 z "},"6":{"ha":758,"x_min":67,"x_max":699,"o":"m 699 317 q 619 72 699 160 q 392 -15 540 -15 q 67 440 67 -15 q 125 804 67 679 q 403 975 206 975 q 679 747 668 975 q 679 703 681 728 q 600 710 640 710 q 514 703 549 710 q 514 725 514 713 q 483 819 510 790 q 396 847 457 847 q 289 806 324 847 q 243 656 254 764 q 236 583 240 631 q 231 537 235 558 q 226 508 226 515 q 233 501 226 501 q 244 513 236 501 q 301 578 261 538 q 435 610 349 610 q 627 530 556 610 q 699 317 699 450 m 535 299 q 394 488 535 488 q 256 414 304 488 q 242 381 250 404 q 242 332 240 365 q 396 111 251 111 q 535 299 535 111 z "},"7":{"ha":701,"x_min":29,"x_max":665,"o":"m 665 864 q 664 843 664 857 q 367 0 379 474 q 264 6 315 6 q 178 0 217 6 q 468 783 200 433 q 486 801 471 788 q 501 818 501 814 q 489 825 501 825 q 465 822 483 825 q 438 819 446 819 l 326 819 q 29 814 114 819 q 33 890 33 839 q 31 961 33 929 q 406 958 174 958 q 664 961 597 958 q 661 928 661 944 q 663 897 661 919 q 665 864 665 874 z "},"8":{"ha":758,"x_min":61,"x_max":701,"o":"m 701 258 q 619 60 701 131 q 381 -15 535 -15 q 144 58 228 -15 q 61 258 61 132 q 192 476 61 413 q 226 485 199 479 q 246 496 246 489 q 226 508 246 503 q 194 521 201 517 q 88 718 88 588 q 165 903 88 833 q 382 974 243 974 q 597 904 518 974 q 675 719 675 835 q 569 522 675 589 q 538 511 564 519 q 517 497 517 504 q 536 485 517 490 q 569 476 565 479 q 701 258 701 411 m 513 706 q 382 850 513 850 q 250 715 250 850 q 381 560 250 560 q 513 706 513 560 m 538 263 q 382 435 538 435 q 225 261 225 435 q 379 111 225 111 q 538 263 538 111 z "},"9":{"ha":758,"x_min":61,"x_max":693,"o":"m 693 519 q 635 156 693 282 q 356 -15 554 -15 q 79 208 92 -15 q 81 257 78 224 q 158 250 119 250 q 244 257 210 250 q 244 238 244 251 q 274 142 247 171 q 364 113 301 113 q 471 156 436 113 q 517 313 506 200 q 522 376 521 349 q 528 424 524 403 q 532 451 532 444 q 525 458 532 458 q 511 444 522 458 q 457 382 496 421 q 324 350 410 350 q 132 430 203 350 q 61 643 61 510 q 140 888 61 800 q 368 975 219 975 q 693 519 693 975 m 519 600 q 517 647 519 610 q 363 849 501 849 q 225 661 225 849 q 365 472 225 472 q 503 546 451 472 q 519 600 519 569 z "}," ":{"ha":360,"x_min":0,"x_max":0,"o":""},"!":{"ha":479,"x_min":143,"x_max":338,"o":"m 338 965 q 299 274 338 774 q 247 276 281 276 q 186 274 214 276 q 143 965 143 826 q 246 960 208 960 q 338 965 283 960 m 328 0 q 249 7 289 7 q 157 0 211 7 q 160 92 160 33 q 157 174 160 149 q 242 171 196 171 q 328 174 289 171 q 324 82 324 131 q 328 0 324 33 z "},"\"":{"ha":629,"x_min":94,"x_max":535,"o":"m 535 975 q 507 535 519 803 q 449 539 482 539 q 393 535 417 539 q 365 975 379 835 q 457 971 407 971 q 535 975 504 971 m 265 975 q 236 535 246 750 q 181 539 213 539 q 122 535 147 539 q 94 975 111 813 q 181 971 132 971 q 265 975 229 971 z "},"#":{"ha":801,"x_min":21,"x_max":758,"o":"m 758 706 q 749 576 746 639 q 638 581 665 581 q 608 560 613 581 q 585 406 585 425 q 601 396 585 396 q 710 400 624 396 q 703 335 706 379 q 703 276 701 296 q 590 282 618 282 q 563 257 567 282 q 528 -6 550 174 q 464 3 501 3 q 400 -6 429 3 q 449 275 449 235 q 425 283 449 283 l 303 283 q 276 280 282 283 q 268 258 271 276 q 233 -6 256 160 q 171 3 210 3 q 104 -6 133 3 q 153 272 153 228 q 140 283 153 283 q 21 278 158 283 q 29 339 26 300 q 29 400 32 375 q 146 394 132 394 q 175 417 171 394 q 197 571 197 543 q 183 581 197 581 q 68 576 161 581 q 78 704 79 633 q 189 700 207 700 q 221 725 217 700 q 251 963 244 879 q 318 958 281 958 q 381 963 356 958 q 336 707 336 763 q 350 699 336 699 l 488 699 q 517 724 513 699 q 549 963 525 778 q 614 960 571 960 q 675 963 656 960 q 631 707 631 750 q 644 700 631 700 q 758 706 636 700 m 494 575 q 471 582 494 582 l 343 582 q 313 558 317 582 q 289 403 289 419 q 303 393 289 393 l 440 393 q 472 421 468 393 q 494 575 494 553 z "},"$":{"ha":765,"x_min":64,"x_max":697,"o":"m 697 292 q 468 17 697 65 q 442 -4 442 11 q 444 -100 442 -19 q 374 -94 407 -94 q 310 -100 340 -94 q 313 -57 310 -96 q 314 -1 314 -28 q 296 18 314 15 q 67 264 83 54 q 67 317 64 293 q 142 311 96 311 q 215 315 190 311 q 214 285 213 294 q 389 135 228 135 q 494 165 453 135 q 543 265 543 200 q 514 354 543 321 q 428 408 488 383 q 293 451 383 422 q 79 704 79 526 q 135 863 79 799 q 289 949 192 926 q 310 955 307 953 q 314 971 314 957 q 313 1013 314 989 q 310 1056 310 1042 q 379 1049 346 1049 q 443 1056 414 1049 q 440 971 440 969 q 464 951 440 956 q 619 866 567 933 q 668 694 671 799 q 596 701 639 701 q 524 694 551 701 q 521 722 524 704 q 375 842 504 842 q 278 815 317 842 q 232 725 232 783 q 322 608 232 650 q 453 564 328 606 q 626 472 571 525 q 697 292 697 404 z "},"%":{"ha":1082,"x_min":56,"x_max":1033,"o":"m 1033 250 q 983 60 1033 128 q 825 -14 929 -14 q 667 58 721 -14 q 615 246 615 126 q 667 442 615 371 q 824 518 721 518 q 1033 250 1033 518 m 883 971 q 332 -7 664 597 q 276 0 307 0 q 213 -7 246 0 q 764 971 404 318 q 822 967 785 967 q 883 971 860 967 m 475 706 q 425 517 475 585 q 267 443 371 443 q 107 515 163 443 q 56 703 56 583 q 106 897 56 828 q 264 974 160 974 q 424 899 369 974 q 475 706 475 829 m 906 247 q 888 385 906 346 q 824 425 871 425 q 742 254 742 425 q 825 82 742 82 q 888 120 869 82 q 906 247 906 158 m 347 703 q 329 840 347 800 q 265 881 311 881 q 183 711 183 881 q 267 539 183 539 q 329 576 311 539 q 347 703 347 614 z "},"&":{"ha":1010,"x_min":60,"x_max":915,"o":"m 915 -8 q 828 -17 878 -17 q 640 60 708 -17 q 613 81 622 81 q 586 63 608 81 q 358 -17 489 -17 q 137 59 214 -17 q 60 264 60 135 q 254 549 60 464 q 282 571 282 561 q 269 593 282 571 q 211 771 211 696 q 278 924 211 867 q 461 982 344 982 q 650 924 583 982 q 711 778 711 869 q 651 636 711 693 q 507 549 608 596 q 481 531 481 536 q 501 496 481 528 q 600 358 546 428 q 619 329 610 343 q 639 310 633 310 q 663 343 643 310 q 732 546 711 426 q 810 542 758 542 q 879 546 853 542 q 749 238 839 361 q 736 210 736 221 q 758 178 736 199 q 878 131 807 131 q 914 138 893 131 q 910 75 910 115 q 915 -8 910 25 m 569 774 q 465 875 569 875 q 392 851 419 875 q 365 786 365 826 q 401 665 365 740 q 433 629 418 629 q 458 640 438 629 q 569 774 569 701 m 535 189 q 515 219 535 194 q 364 433 410 354 q 336 465 346 465 q 307 450 332 465 q 211 290 211 392 q 255 161 211 208 q 374 114 299 114 q 508 161 453 114 q 535 189 535 183 z "},"'":{"ha":358,"x_min":94,"x_max":265,"o":"m 265 975 q 236 535 244 735 q 183 539 215 539 q 122 535 151 539 q 94 975 108 825 q 185 969 140 969 q 265 975 225 969 z "},"(":{"ha":515,"x_min":131,"x_max":450,"o":"m 450 -165 q 379 -164 439 -164 q 328 -165 340 -164 q 131 413 131 111 q 328 985 131 724 q 381 983 339 983 q 450 985 439 983 q 289 411 289 721 q 450 -165 289 104 z "},")":{"ha":515,"x_min":60,"x_max":382,"o":"m 382 414 q 183 -165 382 110 q 132 -162 160 -162 q 63 -165 81 -162 q 224 424 224 117 q 60 985 224 729 q 129 982 75 982 q 185 985 163 982 q 382 414 382 718 z "},"*":{"ha":586,"x_min":32,"x_max":554,"o":"m 554 743 q 408 714 504 736 q 365 694 365 704 q 386 667 365 692 q 493 544 431 613 q 393 475 433 517 q 315 613 350 557 q 292 642 297 642 q 272 617 288 642 q 189 475 226 543 q 89 547 146 518 q 203 672 140 597 q 219 696 219 692 q 185 713 219 704 q 32 744 83 736 q 71 858 60 796 q 206 797 142 822 q 240 783 240 783 q 254 801 254 783 q 252 815 254 804 q 250 831 250 825 q 232 978 244 899 q 293 975 254 975 q 356 978 336 975 q 339 831 344 904 q 337 815 339 825 q 335 801 335 806 q 351 783 335 783 q 382 794 353 783 q 518 856 419 808 q 554 743 524 801 z "},"+":{"ha":806,"x_min":72,"x_max":733,"o":"m 733 282 q 518 286 615 286 l 483 286 q 465 268 465 286 q 465 239 465 239 l 471 10 q 404 17 438 17 q 335 10 369 17 q 339 236 336 106 q 340 267 340 268 q 321 286 340 286 q 306 286 315 286 q 289 285 293 285 q 72 282 194 283 q 76 347 76 306 q 72 419 76 390 q 289 414 118 418 q 306 413 292 414 q 322 413 317 413 q 340 433 340 413 q 339 467 340 431 q 335 690 338 565 q 407 686 371 686 q 471 690 444 686 q 467 464 469 593 q 465 436 465 433 q 483 413 465 413 q 500 413 489 413 q 515 414 513 414 l 733 419 q 729 350 729 394 q 733 282 729 308 z "},",":{"ha":376,"x_min":63,"x_max":289,"o":"m 289 178 q 188 -214 267 8 q 138 -211 168 -211 q 63 -215 108 -211 q 124 178 110 -15 q 211 172 185 172 q 289 178 240 172 z "},"-":{"ha":410,"x_min":60,"x_max":356,"o":"m 356 300 q 197 304 286 304 q 60 300 113 304 q 65 368 65 331 q 60 442 65 406 q 217 436 142 436 q 356 442 293 436 q 351 371 351 417 q 356 300 351 325 z "},"‐":{"ha":410,"x_min":60,"x_max":356,"o":"m 356 300 q 197 304 286 304 q 60 300 113 304 q 65 368 65 331 q 60 442 65 406 q 217 436 142 436 q 356 442 293 436 q 351 371 351 417 q 356 300 351 325 z "},".":{"ha":376,"x_min":104,"x_max":276,"o":"m 276 0 q 197 7 238 7 q 104 0 160 7 q 107 90 107 36 q 104 178 107 146 q 189 174 147 174 q 276 178 232 174 q 272 90 272 142 q 276 0 272 40 z "},"/":{"ha":574,"x_min":-3,"x_max":540,"o":"m 540 985 q 135 -118 336 457 q 68 -112 104 -112 q -3 -118 32 -112 q 403 983 218 451 q 472 979 428 979 q 540 985 514 979 z "},":":{"ha":376,"x_min":104,"x_max":276,"o":"m 276 492 q 196 497 242 497 q 104 492 151 497 q 107 576 107 518 q 104 669 107 638 q 190 667 150 667 q 276 669 228 667 q 272 574 272 625 q 276 492 272 524 m 276 0 q 196 7 238 7 q 104 0 158 7 q 107 86 107 24 q 104 178 107 150 q 190 175 138 175 q 276 178 243 175 q 272 92 272 143 q 276 0 272 40 z "},";":{"ha":376,"x_min":63,"x_max":289,"o":"m 275 492 q 186 497 233 497 q 104 492 143 497 q 107 585 107 524 q 104 669 107 643 q 190 667 143 667 q 275 669 236 667 q 272 574 272 636 q 275 492 272 515 m 289 174 q 188 -218 267 4 q 138 -215 168 -215 q 63 -218 93 -215 q 124 174 110 -18 q 211 169 169 169 q 289 174 253 169 z "},"<":{"ha":806,"x_min":68,"x_max":736,"o":"m 736 6 q 68 304 442 153 q 72 361 72 335 q 68 421 72 386 q 736 718 338 525 q 731 642 731 675 q 736 578 731 607 q 314 394 578 517 q 268 381 314 394 q 242 361 242 374 q 268 343 242 350 q 314 328 311 329 q 736 146 561 211 q 731 76 731 115 q 736 6 731 39 z "},"=":{"ha":806,"x_min":72,"x_max":733,"o":"m 733 426 q 375 431 575 431 q 72 426 185 431 q 76 488 76 453 q 72 560 76 526 q 426 554 282 554 q 733 560 578 554 q 731 493 731 538 q 733 426 731 450 m 733 146 q 376 150 563 150 q 72 146 192 150 q 78 217 78 181 q 72 279 78 249 q 378 275 174 275 q 733 279 592 275 q 729 207 729 242 q 733 146 729 171 z "},">":{"ha":806,"x_min":68,"x_max":736,"o":"m 736 301 q 68 6 417 174 q 74 79 74 46 q 68 146 74 115 q 483 325 233 210 q 533 340 485 325 q 563 361 563 349 q 535 382 563 374 q 483 399 485 399 q 68 578 247 507 q 74 640 74 606 q 68 718 74 674 q 736 418 388 565 q 732 358 732 383 q 736 301 732 332 z "},"?":{"ha":682,"x_min":56,"x_max":632,"o":"m 632 713 q 590 554 632 617 q 476 453 556 503 q 406 394 425 421 q 379 313 381 363 q 379 275 379 299 q 307 281 344 281 q 236 275 272 281 q 235 322 235 317 q 296 489 236 431 q 407 569 351 529 q 465 704 465 618 q 435 818 465 783 q 339 853 406 853 q 248 827 276 853 q 214 742 219 801 q 214 704 213 728 q 136 708 182 708 q 57 703 93 708 q 58 754 56 725 q 140 917 67 858 q 344 975 213 975 q 553 911 478 975 q 632 713 632 843 m 394 0 q 310 7 349 7 q 222 0 269 7 q 228 82 228 42 q 222 174 228 121 q 314 169 265 169 q 394 174 363 169 q 389 83 389 128 q 394 0 389 38 z "},"@":{"ha":1106,"x_min":93,"x_max":1021,"o":"m 1021 538 q 943 299 1021 389 q 761 214 871 214 q 647 264 683 214 q 640 286 644 268 q 631 300 638 300 q 618 288 626 300 q 606 268 608 271 q 494 217 558 217 q 384 275 426 217 q 342 428 342 333 q 405 644 342 551 q 560 738 468 738 q 653 697 618 738 q 669 678 658 688 q 674 706 674 676 q 675 718 674 707 q 676 731 676 729 q 732 728 700 728 q 782 731 764 728 q 733 399 753 572 q 729 364 729 361 q 785 303 729 303 q 883 363 843 303 q 922 522 922 422 q 824 796 922 693 q 586 893 731 893 q 311 769 418 893 q 210 478 210 651 q 313 192 210 306 q 589 71 418 71 q 847 150 721 71 q 900 97 865 119 q 575 -19 754 -19 q 222 126 357 -19 q 93 476 93 267 q 224 832 93 690 q 585 982 361 982 q 893 865 772 982 q 1021 538 1021 742 m 649 561 q 638 621 651 600 q 578 650 618 650 q 493 576 525 650 q 465 429 465 513 q 533 318 465 318 q 615 393 586 318 q 640 499 631 431 q 649 561 644 519 z "},"A":{"ha":832,"x_min":24,"x_max":808,"o":"m 808 0 q 722 7 769 7 q 629 0 679 7 q 578 186 615 65 q 546 208 571 207 q 394 213 444 213 q 278 208 379 213 q 238 186 244 207 q 189 0 211 101 q 108 7 144 7 q 24 0 64 7 q 169 489 97 244 q 303 965 267 814 q 424 960 361 960 q 528 965 478 960 q 808 0 565 804 m 539 346 q 531 369 539 339 q 429 739 494 503 q 418 796 425 753 q 408 815 415 815 q 394 782 401 815 q 386 739 390 760 q 336 542 361 640 q 276 349 307 421 q 275 342 275 344 q 289 336 276 336 q 349 338 308 336 q 413 340 390 340 q 470 338 432 340 q 526 336 508 336 q 539 346 539 336 z "},"B":{"ha":818,"x_min":106,"x_max":751,"o":"m 751 258 q 650 46 751 113 q 474 0 581 0 q 363 2 435 0 q 253 4 292 4 q 106 0 168 4 q 110 496 110 224 q 106 964 110 765 q 228 960 167 960 q 341 962 268 960 q 454 964 414 964 q 622 924 557 964 q 719 721 719 863 q 636 538 719 596 q 575 509 610 519 q 540 497 540 499 q 575 488 540 496 q 654 453 617 478 q 751 258 751 388 m 549 699 q 403 832 549 832 q 300 831 353 832 q 276 825 282 831 q 269 797 271 819 q 268 613 268 761 l 268 583 q 293 556 268 556 q 347 557 307 556 q 393 558 386 558 q 549 699 549 561 m 575 272 q 400 431 575 428 q 290 432 325 432 q 267 403 267 432 l 267 378 q 269 168 267 236 q 317 126 271 128 q 413 126 317 126 q 575 272 575 126 z "},"C":{"ha":810,"x_min":71,"x_max":751,"o":"m 751 315 q 743 231 751 279 q 426 -17 700 -17 q 71 461 71 -17 q 429 976 71 976 q 740 739 699 976 q 750 622 750 685 q 669 628 711 628 q 581 624 618 628 q 579 649 581 633 q 431 842 568 842 q 290 765 333 842 q 242 464 242 679 q 274 219 242 296 q 426 118 317 118 q 588 342 583 118 q 694 331 638 331 q 750 336 715 331 q 751 325 750 335 q 751 315 751 317 z "},"D":{"ha":863,"x_min":104,"x_max":793,"o":"m 793 475 q 694 113 793 233 q 438 0 604 0 l 410 0 q 327 2 385 0 q 240 4 269 4 q 104 0 151 4 q 108 474 108 213 q 104 964 108 719 q 217 961 156 961 q 306 963 249 961 q 386 964 364 964 l 407 964 q 793 475 793 964 m 617 475 q 572 728 617 646 q 376 832 515 829 q 308 832 354 832 q 275 801 276 832 q 272 489 272 710 q 275 186 272 313 q 285 143 276 153 q 331 132 294 133 q 375 132 344 132 q 568 228 511 135 q 617 475 617 307 z "},"E":{"ha":725,"x_min":104,"x_max":640,"o":"m 640 0 q 388 6 544 6 q 104 0 233 6 q 108 454 108 192 q 104 963 108 715 q 358 958 222 958 q 626 963 500 958 q 622 889 622 917 q 626 817 622 853 q 313 822 482 822 q 283 819 290 822 q 275 799 276 815 q 269 607 269 736 l 269 576 q 301 551 269 551 l 326 551 q 611 557 442 551 q 608 479 608 522 q 611 410 608 435 q 372 415 506 415 q 329 415 353 415 q 300 414 304 414 q 269 388 269 414 l 269 363 q 272 169 269 260 q 278 147 272 151 q 307 143 285 143 q 640 150 492 143 q 638 71 638 115 q 640 0 638 25 z "},"F":{"ha":681,"x_min":104,"x_max":625,"o":"m 625 817 q 342 824 451 824 l 308 824 q 280 819 286 824 q 272 794 274 814 q 269 621 269 722 l 269 576 q 278 553 269 558 q 303 550 282 550 q 614 557 389 550 q 610 478 610 514 q 615 410 610 456 q 313 417 463 417 q 276 410 283 417 q 269 383 269 403 q 275 0 269 222 q 192 4 246 4 q 104 0 139 4 q 108 449 108 192 q 104 963 108 710 q 386 958 235 958 q 625 963 536 958 q 622 890 622 918 q 625 817 622 853 z "},"G":{"ha":835,"x_min":69,"x_max":760,"o":"m 760 110 q 425 -18 638 -18 q 69 457 69 -18 q 436 978 69 978 q 743 757 693 978 q 756 667 753 713 q 757 629 756 656 q 672 633 721 633 q 588 629 621 633 q 432 843 576 843 q 285 754 332 843 q 239 460 239 665 q 435 115 239 115 q 569 158 522 115 q 596 194 590 178 q 601 256 601 210 q 595 324 601 308 q 563 340 589 340 q 442 336 489 340 q 446 401 446 369 q 442 467 446 431 q 606 463 514 463 q 760 467 689 463 q 756 313 756 408 q 760 110 756 235 z "},"H":{"ha":881,"x_min":106,"x_max":775,"o":"m 775 0 q 688 7 731 7 q 606 0 649 7 q 608 375 608 247 l 608 394 q 581 421 608 419 q 436 422 542 422 q 297 419 378 422 q 274 394 274 418 l 274 374 q 278 0 274 154 q 197 7 240 7 q 106 0 157 7 q 110 485 110 225 q 106 964 110 746 q 194 960 154 960 q 278 964 236 960 q 272 601 272 785 l 272 585 q 297 557 272 558 q 442 554 381 554 q 585 557 493 554 q 610 585 610 558 l 610 604 q 604 964 610 821 q 689 960 640 960 q 775 964 731 960 q 771 468 771 667 q 775 0 771 249 z "},"I":{"ha":385,"x_min":106,"x_max":279,"o":"m 279 0 q 197 7 240 7 q 106 0 156 7 q 108 453 108 150 q 106 964 108 751 q 192 960 147 960 q 279 964 231 960 l 276 460 q 279 0 276 203 z "},"J":{"ha":722,"x_min":50,"x_max":619,"o":"m 619 271 q 564 69 619 140 q 326 -15 497 -15 q 50 268 50 -15 q 54 332 50 304 q 132 328 89 328 q 213 332 179 328 q 207 271 207 293 q 322 119 207 119 q 420 158 394 119 q 449 296 446 196 q 451 604 451 417 q 449 964 451 761 q 533 958 497 958 q 619 964 579 958 q 617 635 617 844 q 618 449 617 572 q 619 271 619 326 z "},"K":{"ha":811,"x_min":106,"x_max":785,"o":"m 785 0 q 676 6 742 6 q 579 0 625 6 q 347 336 526 86 q 294 413 329 361 q 286 431 290 421 q 278 442 282 442 q 269 429 269 442 q 271 368 269 415 q 272 315 272 321 l 276 0 q 193 7 233 7 q 106 0 150 7 q 111 482 111 232 q 106 964 111 667 q 193 960 161 960 q 276 964 224 960 l 274 617 q 272 585 274 613 q 271 550 271 558 q 276 535 271 535 q 289 550 279 535 q 351 635 307 578 q 575 964 372 663 q 667 960 633 960 q 757 964 703 960 q 449 543 658 821 q 426 507 426 517 q 446 476 426 503 q 493 415 463 457 q 785 0 593 275 z "},"L":{"ha":638,"x_min":104,"x_max":596,"o":"m 596 0 q 346 6 488 6 q 104 0 211 6 q 108 476 108 250 q 104 964 108 742 q 193 960 156 960 q 276 964 236 960 q 271 497 271 756 q 274 174 271 415 q 301 143 274 143 l 325 143 q 596 150 478 143 q 590 76 590 111 q 596 0 590 47 z "},"M":{"ha":1156,"x_min":104,"x_max":1049,"o":"m 1049 0 q 969 7 1008 7 q 881 0 933 7 q 885 583 885 556 q 890 678 885 599 q 894 764 894 757 q 889 778 894 778 q 868 731 881 778 l 839 615 q 678 96 785 440 q 650 0 661 39 q 576 6 624 6 q 488 0 522 6 q 463 94 479 35 q 301 614 397 294 q 274 729 278 703 q 256 778 265 778 q 249 761 249 778 q 253 653 249 731 q 257 544 257 571 l 261 0 q 176 7 217 7 q 104 0 136 7 q 107 460 107 146 q 104 964 107 785 q 233 958 175 958 q 344 964 292 958 q 553 285 386 813 q 567 222 561 257 q 575 201 569 201 q 583 222 581 201 q 599 286 589 256 q 803 964 739 710 q 936 958 872 958 q 1047 964 993 958 l 1042 514 q 1049 0 1042 411 z "},"N":{"ha":931,"x_min":104,"x_max":826,"o":"m 826 964 q 824 467 824 806 l 824 -1 q 717 7 776 7 q 611 -1 661 7 l 308 667 q 276 749 303 679 q 253 793 260 793 q 247 768 247 793 q 253 733 247 774 q 258 646 258 693 l 258 453 q 264 -1 258 322 q 189 7 224 7 q 104 -1 158 7 q 108 453 108 254 q 104 964 108 651 q 225 960 156 960 q 328 964 288 960 q 619 326 518 543 q 661 219 628 310 q 681 185 667 203 q 685 201 685 185 q 679 248 685 203 q 674 324 674 293 l 674 461 q 668 964 674 572 q 747 958 714 958 q 826 964 783 958 z "},"O":{"ha":861,"x_min":69,"x_max":793,"o":"m 793 475 q 703 101 793 219 q 432 -18 613 -18 q 69 479 69 -18 q 432 978 69 978 q 703 856 614 978 q 793 475 793 733 m 622 472 q 432 846 622 846 q 289 765 333 846 q 240 471 240 678 q 431 114 240 114 q 622 472 622 114 z "},"P":{"ha":778,"x_min":106,"x_max":725,"o":"m 725 669 q 637 440 725 517 q 392 364 549 364 q 343 364 374 364 q 294 365 310 365 q 272 342 272 365 l 272 313 q 278 0 272 183 q 190 7 224 7 q 106 0 154 7 q 108 457 108 188 q 106 964 108 772 q 218 961 164 961 q 314 963 253 961 q 410 964 375 964 q 725 669 725 964 m 554 668 q 386 831 554 831 q 300 829 339 831 q 275 806 276 828 q 272 604 272 736 l 272 525 q 293 499 272 499 q 354 497 336 497 q 554 668 554 497 z "},"Q":{"ha":861,"x_min":69,"x_max":793,"o":"m 793 475 q 753 193 793 278 q 553 8 706 92 q 542 -15 542 3 q 654 -72 542 -72 q 724 -65 679 -72 q 718 -143 718 -96 q 724 -218 718 -186 q 649 -226 688 -226 q 400 -58 419 -226 q 399 -32 400 -54 q 383 -13 397 -15 q 344 -7 369 -11 q 69 478 69 49 q 433 978 69 978 q 699 863 611 978 q 793 475 793 739 m 621 476 q 581 747 621 658 q 432 847 535 847 q 283 754 329 847 q 242 478 242 667 q 282 213 242 300 q 431 114 328 114 q 581 211 536 114 q 621 476 621 296 z "},"R":{"ha":807,"x_min":106,"x_max":751,"o":"m 751 0 q 654 6 707 6 q 567 0 606 6 q 485 303 526 208 q 440 369 464 351 q 350 394 410 394 l 304 394 q 274 383 279 394 q 271 364 271 378 l 271 335 q 276 0 271 113 q 199 6 242 6 q 106 0 153 6 q 107 485 107 103 l 106 964 q 251 961 160 961 q 343 963 285 961 q 435 964 401 964 q 660 882 581 964 q 732 688 732 808 q 694 547 732 608 q 588 461 654 482 q 560 457 574 458 q 539 447 539 453 q 551 439 539 442 q 593 418 572 435 q 664 301 632 389 q 751 0 710 176 m 560 682 q 383 831 560 831 q 306 829 332 831 q 274 801 275 828 q 271 547 271 722 q 307 519 271 519 l 335 519 q 426 525 390 519 q 560 682 560 546 z "},"S":{"ha":793,"x_min":67,"x_max":729,"o":"m 729 268 q 638 57 729 133 q 396 -19 546 -19 q 172 46 257 -19 q 71 244 82 115 q 68 324 67 289 q 146 318 99 318 q 232 325 194 318 q 232 279 231 292 q 410 117 247 117 q 563 247 563 117 q 456 383 563 333 q 299 443 378 414 q 157 528 206 481 q 86 711 86 597 q 169 900 86 824 q 400 982 257 982 q 608 924 525 982 q 707 753 697 863 q 710 694 710 714 q 708 667 708 672 q 638 674 679 674 q 550 665 586 674 q 547 714 550 681 q 501 811 543 776 q 394 846 458 846 q 250 719 250 846 q 354 600 250 650 q 510 536 432 568 q 654 451 604 499 q 729 268 729 382 z "},"T":{"ha":689,"x_min":26,"x_max":663,"o":"m 663 815 q 469 819 544 819 l 447 819 q 425 796 425 819 q 425 631 425 796 q 431 0 425 294 q 346 7 383 7 q 257 0 297 7 q 263 631 263 304 q 261 797 263 683 q 238 819 261 819 l 214 819 q 26 815 161 819 q 31 888 31 844 q 26 964 31 933 q 351 960 218 960 q 663 964 517 960 q 657 886 657 922 q 663 815 657 851 z "},"U":{"ha":856,"x_min":106,"x_max":753,"o":"m 753 311 q 426 -18 753 -18 q 106 304 106 -18 l 106 314 q 107 492 106 372 q 108 676 108 613 q 106 964 108 828 q 196 958 153 958 q 278 964 242 958 q 274 603 274 822 q 276 307 274 501 q 431 124 279 124 q 549 171 514 124 q 583 313 582 214 q 586 625 586 463 q 582 964 586 838 q 668 958 625 958 q 753 964 718 958 q 750 708 750 861 q 751 513 750 643 q 753 318 753 383 l 753 311 z "},"V":{"ha":790,"x_min":14,"x_max":776,"o":"m 776 964 q 488 0 661 586 q 390 4 443 4 q 299 1 331 4 q 14 964 263 138 q 103 958 61 958 q 196 964 149 958 q 303 556 250 732 q 381 293 342 424 q 392 222 385 263 q 401 211 394 211 q 410 222 408 211 q 421 292 414 251 q 607 964 485 507 q 692 958 654 958 q 776 964 733 958 z "},"W":{"ha":1208,"x_min":18,"x_max":1192,"o":"m 1192 964 l 975 0 q 886 6 936 6 q 775 0 833 6 q 643 568 744 163 q 621 701 631 617 q 610 740 617 740 q 597 700 601 740 q 574 568 589 632 q 440 0 475 167 q 342 6 396 6 q 244 0 293 6 q 18 964 94 663 q 113 958 67 958 q 192 964 150 958 q 325 326 238 736 q 342 231 331 294 q 350 215 344 215 q 357 231 354 215 q 376 326 368 290 q 525 964 436 563 q 618 958 564 958 q 704 964 674 958 q 856 324 742 772 q 875 233 863 293 q 882 218 878 218 q 888 233 886 218 q 901 324 892 264 q 1035 964 1004 789 q 1111 958 1074 958 q 1192 964 1144 958 z "},"X":{"ha":765,"x_min":17,"x_max":747,"o":"m 747 0 q 642 6 704 6 q 551 0 592 6 q 410 276 506 86 q 388 325 396 304 q 376 346 381 346 q 367 328 374 346 q 344 278 360 311 q 194 0 257 113 q 113 7 156 7 q 17 0 71 7 q 278 457 111 161 q 289 488 289 478 q 281 513 289 496 q 32 964 199 660 q 139 960 90 960 q 225 964 192 960 q 360 707 274 874 q 381 661 375 676 q 392 646 386 646 q 401 661 396 646 q 424 711 413 692 q 560 964 485 822 q 639 958 597 958 q 733 964 681 958 q 490 536 647 814 q 479 503 479 515 q 490 472 479 493 q 747 0 550 360 z "},"Y":{"ha":774,"x_min":14,"x_max":761,"o":"m 761 964 q 494 431 565 585 q 467 296 467 371 q 471 0 467 238 q 389 6 436 6 q 300 0 343 6 l 304 293 q 276 429 304 368 q 14 964 178 644 q 108 958 64 958 q 199 964 144 958 q 363 622 256 833 q 382 564 371 606 q 393 546 386 546 q 404 564 399 546 q 429 624 413 592 q 592 964 529 808 q 671 958 642 958 q 761 964 694 958 z "},"Z":{"ha":686,"x_min":40,"x_max":644,"o":"m 644 0 q 283 6 428 6 q 40 0 114 6 q 43 71 43 26 q 40 133 43 111 q 394 744 331 624 q 435 799 406 765 q 449 822 449 814 q 424 831 449 831 l 368 831 q 51 822 292 831 q 54 889 54 844 q 51 964 54 940 q 382 960 283 960 q 639 964 482 960 q 640 935 639 957 q 642 901 642 914 q 640 872 642 894 q 639 842 639 849 q 249 171 311 288 q 237 155 246 165 q 228 139 228 144 q 235 133 228 135 q 274 136 235 133 q 644 144 414 139 q 640 74 640 114 q 644 0 640 29 z "},"[":{"ha":515,"x_min":153,"x_max":433,"o":"m 433 -165 q 300 -162 361 -162 q 153 -165 239 -162 q 156 399 156 4 q 153 990 156 792 q 299 988 213 988 q 431 990 382 988 q 429 942 429 975 q 431 899 429 911 q 317 903 338 903 q 296 879 296 903 q 293 403 293 690 q 296 -51 293 114 q 318 -75 296 -75 q 433 -74 413 -75 q 429 -115 429 -97 q 433 -165 429 -133 z "},"\\":{"ha":574,"x_min":3,"x_max":543,"o":"m 543 -118 q 479 -112 513 -112 q 407 -118 449 -112 q 3 986 189 499 q 76 982 38 982 q 139 985 117 982 q 543 -118 344 393 z "},"]":{"ha":515,"x_min":75,"x_max":356,"o":"m 356 -165 q 210 -162 296 -162 q 78 -165 126 -162 q 79 -117 79 -150 q 78 -72 79 -85 q 192 -76 171 -76 q 213 -54 213 -76 q 215 432 215 135 q 213 878 215 713 q 190 901 213 901 q 75 899 117 901 q 79 942 79 922 q 75 990 79 958 q 208 988 147 988 q 356 990 269 988 q 353 435 353 821 q 356 -165 353 33 z "},"^":{"ha":799,"x_min":58,"x_max":749,"o":"m 749 442 q 681 446 717 446 q 608 442 644 446 q 422 781 515 625 q 414 804 421 783 q 401 818 408 818 q 389 805 394 818 q 378 779 383 792 q 192 442 269 593 q 119 446 158 446 q 58 442 83 446 q 333 943 214 699 q 406 940 361 940 q 471 943 447 940 q 749 442 576 733 z "},"_":{"ha":767,"x_min":7,"x_max":760,"o":"m 760 -175 l 7 -175 l 7 -94 l 760 -94 l 760 -175 z "},"`":{"ha":367,"x_min":14,"x_max":297,"o":"m 297 782 q 238 785 275 785 q 183 782 211 785 q 14 985 143 833 q 106 988 51 988 q 204 985 158 988 q 297 782 278 817 z "},"a":{"ha":722,"x_min":67,"x_max":643,"o":"m 643 0 q 593 1 621 1 q 478 -7 521 1 q 469 68 469 39 q 464 90 469 90 q 449 65 463 90 q 281 -17 401 -17 q 123 38 179 -17 q 67 189 67 93 q 188 379 67 328 q 422 419 250 406 q 463 472 463 422 l 463 489 q 354 600 463 600 q 240 515 244 600 q 242 489 240 522 q 183 493 215 493 q 97 485 139 493 q 96 501 97 490 q 94 514 94 511 q 171 665 94 613 q 361 714 242 714 q 613 564 583 714 q 624 408 624 507 l 624 190 q 643 0 625 88 m 467 331 q 460 340 467 340 q 448 337 464 340 q 393 329 432 333 q 318 318 340 324 q 224 196 224 293 q 311 104 224 114 q 328 103 325 103 q 457 201 438 103 q 464 286 464 238 q 465 307 464 292 q 467 331 467 322 z "},"b":{"ha":758,"x_min":94,"x_max":692,"o":"m 692 343 q 629 85 692 176 q 435 -12 564 -12 q 303 15 351 -12 q 260 58 282 28 q 250 81 258 60 q 238 96 243 96 q 232 88 233 96 q 226 -3 228 61 q 150 3 199 3 q 94 0 125 3 q 104 128 103 63 q 106 492 106 229 q 101 985 106 803 q 181 979 140 979 q 264 985 225 979 l 260 651 q 258 626 258 639 q 263 615 258 615 q 281 640 267 615 q 357 701 303 682 q 436 714 390 714 q 692 343 692 714 m 526 351 q 494 540 526 483 q 390 596 463 596 q 310 565 343 596 q 268 483 276 533 q 263 357 263 450 q 269 235 263 275 q 397 110 290 110 q 526 351 526 110 z "},"c":{"ha":669,"x_min":68,"x_max":619,"o":"m 619 449 q 544 454 575 454 q 460 446 501 454 l 458 469 q 358 594 451 594 q 261 535 290 594 q 232 339 232 476 q 356 103 232 103 q 465 257 464 103 q 558 244 510 244 q 615 250 589 244 q 615 226 615 235 q 356 -19 597 -19 q 68 336 68 -19 q 364 715 68 715 q 618 474 604 715 l 619 449 z "},"d":{"ha":757,"x_min":67,"x_max":669,"o":"m 669 0 q 622 1 658 1 q 511 -6 556 1 q 508 79 510 15 q 501 96 508 96 q 490 82 497 96 q 463 40 483 68 q 308 -12 404 -12 q 67 332 67 -12 q 322 710 67 710 q 417 693 376 710 q 482 632 463 674 q 499 611 492 611 q 501 619 501 611 q 499 657 501 632 q 497 707 497 668 q 493 985 496 926 q 578 979 532 979 q 658 985 621 979 q 654 619 654 817 q 656 319 654 599 q 669 0 657 168 m 499 374 q 478 528 499 492 q 368 592 442 592 q 232 347 232 592 q 361 108 232 108 q 463 160 424 108 q 496 260 490 196 q 499 374 499 294 z "},"e":{"ha":701,"x_min":61,"x_max":642,"o":"m 642 206 q 565 47 629 107 q 364 -19 494 -19 q 61 331 61 -19 q 142 612 61 507 q 367 717 222 717 q 569 626 500 717 q 638 372 638 536 q 635 315 638 343 q 413 322 572 322 l 249 322 q 224 317 229 322 q 219 294 219 313 q 256 158 219 210 q 367 103 296 103 q 499 214 482 103 q 601 204 553 206 q 642 206 617 204 m 483 454 q 482 475 483 465 q 357 599 464 599 q 263 553 300 599 q 217 443 225 508 q 217 431 217 438 q 236 415 218 415 q 328 417 238 415 q 467 422 383 417 q 483 454 483 426 z "},"f":{"ha":467,"x_min":29,"x_max":446,"o":"m 446 917 q 442 847 446 875 q 376 858 404 858 q 303 807 319 858 q 294 708 294 782 q 310 690 294 690 q 436 694 379 690 q 432 632 432 658 q 436 574 432 604 q 310 576 349 576 q 294 557 294 576 q 297 275 294 510 q 300 0 299 138 q 219 7 263 7 q 138 0 176 7 q 140 299 140 114 q 139 564 140 361 q 124 576 139 576 q 29 574 79 576 q 35 635 35 614 q 29 694 35 658 q 122 690 82 690 q 138 708 138 690 q 138 740 138 715 q 136 767 136 764 q 184 935 136 881 q 335 990 232 990 q 442 972 408 990 q 446 917 446 950 z "},"g":{"ha":758,"x_min":67,"x_max":668,"o":"m 668 699 q 653 306 653 600 q 654 153 653 274 q 654 0 654 32 q 583 -209 654 -144 q 361 -274 511 -274 q 164 -225 225 -274 q 108 -87 108 -181 q 188 -93 146 -93 q 261 -87 229 -93 q 365 -165 261 -165 q 494 -33 492 -165 q 497 38 494 -18 q 501 63 497 49 q 504 81 504 76 q 497 89 504 89 q 481 74 490 89 q 465 50 467 51 q 325 -4 415 -4 q 67 356 67 -4 q 132 610 67 518 q 325 707 200 707 q 489 636 440 707 q 500 610 494 624 q 515 596 506 596 q 521 610 519 596 q 525 697 525 654 q 589 692 550 692 q 668 699 622 692 m 496 349 q 489 464 496 431 q 364 588 463 588 q 232 356 232 588 q 267 163 232 219 q 367 113 297 113 q 490 215 472 113 q 496 349 496 247 z "},"h":{"ha":749,"x_min":100,"x_max":657,"o":"m 653 506 l 651 490 q 650 264 650 475 q 651 0 650 79 q 567 7 608 7 q 485 0 524 7 q 489 257 488 113 q 489 429 490 369 q 486 471 489 443 q 467 550 481 526 q 397 585 446 585 q 298 533 335 585 q 261 400 261 482 q 265 0 261 344 q 188 7 231 7 q 100 0 147 7 q 104 486 104 172 q 100 985 104 808 q 182 979 154 979 q 264 985 207 979 l 261 707 q 258 643 261 658 q 254 597 254 617 q 256 579 254 581 l 258 576 q 275 600 265 578 q 322 664 290 636 q 465 713 378 713 q 638 601 597 713 q 653 506 657 549 z "},"i":{"ha":367,"x_min":100,"x_max":267,"o":"m 267 819 q 188 825 233 825 q 100 819 143 825 q 104 904 104 857 q 100 985 104 950 q 189 982 142 982 q 267 985 235 982 q 263 901 263 949 q 267 819 263 857 m 265 0 q 186 7 224 7 q 100 0 139 7 q 104 343 104 138 q 100 694 104 568 q 185 688 140 688 q 265 694 225 688 q 261 343 261 536 q 265 0 261 139 z "},"j":{"ha":367,"x_min":-53,"x_max":268,"o":"m 268 819 q 188 824 238 824 q 101 821 128 824 q 106 903 106 857 q 101 985 106 949 q 189 982 143 982 q 268 985 236 982 q 264 903 264 949 q 268 819 264 856 m 267 -26 q 29 -265 267 -265 q -53 -254 -7 -265 q -49 -190 -49 -231 q -53 -122 -49 -151 q 11 -133 -15 -133 q 88 -100 69 -133 q 101 -14 100 -78 q 104 264 104 96 q 100 694 104 467 q 186 688 154 688 q 267 694 224 688 q 263 404 263 569 q 265 192 263 333 q 267 -4 267 51 l 267 -26 z "},"k":{"ha":714,"x_min":103,"x_max":701,"o":"m 701 0 q 596 7 636 7 q 504 0 547 7 q 326 283 435 126 q 308 301 315 300 q 297 298 303 303 q 277 280 290 293 q 264 238 264 267 q 264 197 264 228 q 265 157 265 165 q 269 0 265 31 q 192 7 233 7 q 103 0 149 7 q 107 519 107 204 q 103 985 107 838 q 190 981 143 981 q 269 985 233 981 q 264 472 269 968 q 263 431 264 444 q 260 393 260 394 q 265 382 260 382 q 283 404 268 382 q 310 439 292 415 q 407 564 346 478 l 501 694 q 572 689 524 689 q 681 694 628 689 q 672 685 678 690 q 493 463 628 635 q 453 417 489 457 q 442 389 442 404 q 452 362 442 375 q 488 314 463 349 q 701 0 567 199 z "},"l":{"ha":367,"x_min":100,"x_max":267,"o":"m 267 0 q 188 6 238 6 q 100 0 140 6 q 104 467 104 217 q 100 985 104 717 q 186 981 132 981 q 267 985 231 981 q 264 460 264 799 q 267 0 264 139 z "},"m":{"ha":1121,"x_min":85,"x_max":1025,"o":"m 1025 0 q 947 8 992 8 q 860 0 904 8 q 865 276 865 117 q 863 464 865 376 q 776 586 858 586 q 668 529 704 586 q 643 424 643 490 q 642 356 643 399 q 642 285 642 338 q 644 0 642 63 q 565 7 604 7 q 479 0 525 7 q 482 268 482 85 q 481 474 482 431 q 393 585 476 585 q 288 524 324 585 q 260 401 264 485 q 260 274 260 403 q 263 0 260 96 q 183 7 219 7 q 97 0 142 7 q 100 325 100 124 l 100 510 q 85 694 99 608 q 169 689 125 689 q 247 694 215 689 q 254 635 254 667 q 253 611 254 626 q 251 588 251 596 q 254 576 251 576 q 265 594 258 576 q 344 688 288 656 q 457 715 394 715 q 572 679 526 715 q 621 600 608 651 q 628 581 626 581 q 643 610 629 581 q 701 679 664 653 q 829 714 751 714 q 972 662 922 714 q 1025 522 1022 610 q 1025 506 1025 522 q 1025 400 1025 489 q 1024 285 1024 311 q 1025 0 1024 32 z "},"n":{"ha":756,"x_min":85,"x_max":658,"o":"m 658 0 q 576 8 615 8 q 493 0 538 8 q 494 242 494 51 q 493 465 494 385 q 401 586 490 586 q 310 547 347 586 q 264 413 265 500 q 263 285 263 290 q 264 133 263 235 q 265 0 265 32 q 188 7 236 7 q 100 0 140 7 q 101 215 101 65 q 99 581 101 508 q 85 694 96 649 q 174 688 136 688 q 254 694 214 688 q 258 635 258 674 q 257 610 258 626 q 254 583 254 589 q 257 572 254 572 q 272 597 258 572 q 286 625 276 607 q 465 710 346 710 q 608 654 558 710 q 657 501 657 599 l 657 492 q 657 393 657 467 q 656 278 656 321 q 658 0 656 94 z "},"o":{"ha":724,"x_min":67,"x_max":660,"o":"m 660 349 q 585 76 660 171 q 367 -19 510 -19 q 67 346 67 -19 q 142 617 67 521 q 364 714 218 714 q 584 619 508 714 q 660 349 660 525 m 496 347 q 465 536 496 479 q 364 593 433 593 q 264 538 294 593 q 231 340 231 478 q 364 101 231 101 q 496 347 496 101 z "},"p":{"ha":760,"x_min":82,"x_max":694,"o":"m 694 364 q 639 97 694 194 q 436 -17 572 -17 q 281 56 325 -17 q 263 83 275 68 q 257 79 257 86 q 260 31 257 69 q 264 -19 264 -12 l 267 -261 q 190 -254 232 -254 q 100 -261 149 -254 q 103 103 103 -169 q 100 533 103 368 q 82 694 99 615 q 147 693 117 693 q 250 697 214 693 q 251 615 250 669 q 257 597 251 597 q 272 618 260 597 q 450 710 328 710 q 694 364 694 710 m 528 349 q 498 533 528 475 q 399 592 468 592 q 304 546 347 592 q 267 449 271 510 q 263 283 263 382 q 264 213 263 232 q 306 135 267 167 q 392 103 344 103 q 499 165 467 103 q 528 349 528 222 z "},"q":{"ha":760,"x_min":68,"x_max":667,"o":"m 667 694 q 660 564 661 661 l 657 160 q 661 -261 657 -60 q 574 -254 617 -254 q 494 -261 538 -254 q 500 -12 500 -212 l 500 46 q 502 58 500 46 q 504 76 504 69 q 499 85 504 85 q 481 57 497 85 q 322 -14 439 -14 q 68 354 68 -14 q 131 613 68 521 q 325 710 197 710 q 469 669 417 710 q 499 639 483 658 q 508 617 500 636 q 522 599 517 599 q 532 639 526 599 q 536 694 533 656 q 603 692 554 692 q 667 694 642 692 m 499 339 q 493 463 499 429 q 475 526 486 508 q 361 590 439 590 q 263 533 292 590 q 233 350 233 475 q 265 162 233 218 q 368 106 297 106 q 474 158 435 106 q 494 208 490 182 q 499 339 499 240 z "},"r":{"ha":493,"x_min":86,"x_max":463,"o":"m 463 625 q 457 536 463 571 q 400 550 419 550 q 267 418 289 550 q 257 286 257 361 q 260 0 257 108 q 179 7 221 7 q 99 0 138 7 q 103 318 103 126 q 103 507 103 544 q 86 694 101 640 q 174 689 131 689 q 246 694 214 689 q 253 625 253 661 q 251 603 253 617 q 250 582 250 589 q 256 567 250 567 q 269 590 257 567 q 331 672 300 649 q 440 708 378 708 q 458 707 451 708 q 463 625 463 669 z "},"s":{"ha":650,"x_min":54,"x_max":589,"o":"m 589 206 q 521 46 589 107 q 319 -19 449 -19 q 56 211 54 -19 q 125 206 85 206 q 197 213 163 206 q 197 201 197 203 q 324 96 201 96 q 442 183 442 96 q 381 263 442 233 q 247 307 314 285 q 128 369 165 335 q 74 504 74 419 q 140 654 74 593 q 321 715 207 715 q 521 643 457 715 q 564 544 554 606 q 568 494 568 518 q 500 500 536 500 q 435 494 469 500 q 431 524 435 508 q 324 600 413 600 q 219 521 219 600 q 315 428 219 461 q 493 365 486 368 q 589 206 589 313 z "},"t":{"ha":479,"x_min":32,"x_max":450,"o":"m 450 68 q 446 8 450 38 q 301 -18 386 -18 q 118 158 118 -18 l 118 176 q 119 411 118 267 q 124 526 121 446 q 124 560 124 526 q 108 576 124 576 q 71 575 94 576 q 32 574 42 574 q 33 613 33 585 q 32 643 33 628 q 178 860 124 704 q 226 863 199 863 q 285 860 253 863 q 281 713 281 751 q 294 692 281 692 l 311 692 q 442 694 351 692 q 440 632 440 682 q 442 574 440 585 q 304 576 332 576 q 281 550 281 576 q 281 392 281 486 q 283 210 281 283 q 300 131 285 150 q 369 111 315 111 q 447 128 401 111 q 450 68 450 104 z "},"u":{"ha":757,"x_min":97,"x_max":671,"o":"m 671 1 q 581 8 624 8 q 503 1 538 8 q 501 56 501 10 q 503 83 501 61 q 504 114 504 104 q 499 125 504 125 q 483 94 497 125 q 451 44 469 63 q 292 -14 393 -14 q 147 44 196 -14 q 99 201 97 103 q 100 428 100 394 q 97 697 100 606 q 185 689 154 689 q 264 697 219 689 q 260 424 260 585 q 263 231 260 357 q 354 110 265 110 q 443 146 408 110 q 488 238 478 182 q 494 375 494 281 q 492 697 494 544 q 575 690 538 690 q 657 697 607 690 q 654 433 654 622 q 657 169 654 250 q 671 1 661 51 z "},"v":{"ha":656,"x_min":21,"x_max":635,"o":"m 635 694 q 413 -1 504 306 q 328 3 382 3 q 242 -1 272 3 q 21 694 193 178 q 118 690 71 690 q 192 694 163 690 q 313 269 229 556 q 329 194 319 247 q 336 183 331 183 q 343 196 340 183 q 358 268 349 224 q 474 694 358 269 q 549 689 508 689 q 635 694 589 689 z "},"w":{"ha":1004,"x_min":21,"x_max":983,"o":"m 983 694 q 794 -1 908 431 q 707 4 757 4 q 619 -1 671 4 q 533 347 597 108 q 511 458 519 401 q 501 493 506 493 q 490 458 494 493 q 469 347 481 389 q 379 -1 438 232 q 297 4 342 4 q 204 -1 253 4 q 21 694 197 31 q 118 690 69 690 q 186 694 156 690 q 279 290 233 468 q 297 196 285 257 q 307 183 300 183 q 315 196 313 183 q 335 292 322 231 q 415 617 365 401 l 431 694 q 511 689 467 689 q 592 694 561 689 l 607 617 q 685 290 632 486 q 706 196 692 257 q 714 183 708 183 q 722 196 719 183 q 738 290 726 229 q 832 694 796 532 q 903 690 865 690 q 983 694 936 690 z "},"x":{"ha":636,"x_min":14,"x_max":622,"o":"m 622 0 q 531 7 575 7 q 439 0 493 7 q 343 183 406 67 q 322 233 339 190 q 313 251 315 251 q 304 234 311 251 q 283 186 297 217 q 185 0 279 178 q 106 7 146 7 q 14 -1 75 7 q 214 335 122 175 q 219 356 219 344 q 214 382 219 372 q 29 694 156 486 q 125 690 74 690 q 213 694 172 690 q 296 533 242 638 q 315 486 306 517 q 325 472 319 472 q 337 488 331 472 q 357 536 343 504 q 440 694 388 589 q 514 690 467 690 q 607 694 568 690 q 425 393 521 558 q 417 368 417 379 q 424 344 417 357 q 622 0 504 199 z "},"y":{"ha":649,"x_min":21,"x_max":628,"o":"m 628 694 q 408 -6 586 569 q 326 -192 368 -135 q 171 -269 267 -269 q 60 -256 119 -269 q 65 -192 65 -225 q 60 -125 65 -165 q 143 -139 103 -139 q 217 -108 189 -139 q 244 -29 244 -78 q 210 111 244 -1 q 21 694 93 486 q 117 690 71 690 q 193 694 169 690 q 313 263 231 547 q 326 196 318 238 q 335 186 329 186 q 342 196 340 186 q 354 261 346 221 q 413 481 379 343 q 467 694 456 651 q 539 689 494 689 q 628 694 575 689 z "},"z":{"ha":604,"x_min":51,"x_max":553,"o":"m 553 0 q 264 6 440 6 q 51 0 121 6 q 53 58 53 13 q 51 115 53 101 q 86 165 53 118 q 328 533 135 236 q 346 554 331 539 q 361 574 361 569 q 349 578 361 578 q 331 576 343 578 q 313 575 318 575 l 263 575 q 74 569 199 575 q 78 633 78 601 q 74 694 78 661 q 350 689 282 689 q 543 694 447 689 q 544 642 544 678 q 542 586 544 611 q 268 168 497 522 q 243 138 261 158 q 236 126 236 129 q 243 121 236 121 q 297 124 261 122 q 553 129 479 126 q 549 64 549 104 q 553 0 549 29 z "},"{":{"ha":494,"x_min":75,"x_max":425,"o":"m 425 -165 q 233 -128 289 -168 q 178 13 178 -87 q 181 124 178 22 q 183 235 183 225 q 75 383 183 368 q 79 422 79 406 q 75 458 79 436 q 183 604 183 472 q 180 706 183 613 q 176 808 176 800 q 228 951 176 910 q 424 992 281 992 q 419 956 419 969 q 424 921 419 940 q 329 894 351 919 q 313 813 313 875 q 316 712 313 804 q 319 611 319 619 q 222 440 319 488 q 193 433 219 439 q 175 421 175 429 q 193 407 175 411 q 222 400 221 400 q 319 222 319 357 q 316 117 319 213 q 313 11 313 21 q 335 -72 313 -50 q 425 -94 358 -93 q 419 -129 419 -117 q 425 -165 419 -142 z "},"|":{"ha":339,"x_min":108,"x_max":232,"o":"m 232 -215 q 175 -211 210 -211 q 108 -215 139 -211 q 113 418 113 -1 q 108 996 113 729 q 175 993 144 993 q 232 996 206 993 q 228 419 228 689 q 232 -215 228 31 z "},"}":{"ha":494,"x_min":71,"x_max":419,"o":"m 419 368 q 311 222 311 354 q 315 120 311 214 q 318 18 318 26 q 268 -122 318 -83 q 71 -165 214 -165 q 74 -129 74 -151 q 71 -94 74 -107 q 165 -68 143 -93 q 182 14 182 -49 q 178 115 182 22 q 175 215 175 207 q 272 386 175 339 q 301 393 275 388 q 319 406 319 397 q 301 419 319 415 q 272 426 274 426 q 175 604 175 469 q 178 710 175 614 q 182 815 182 806 q 164 894 182 874 q 71 921 142 919 q 74 954 74 932 q 71 992 74 981 q 262 954 207 994 q 317 814 317 914 q 314 703 317 804 q 311 593 311 603 q 419 443 311 458 q 417 403 417 428 q 419 368 417 382 z "},"~":{"ha":875,"x_min":81,"x_max":796,"o":"m 796 704 q 597 471 779 471 q 422 533 531 471 q 265 596 313 596 q 167 489 193 596 q 126 494 149 494 q 81 489 107 494 q 274 728 100 728 q 453 662 339 728 q 606 596 567 596 q 671 626 649 596 q 706 704 688 647 q 751 697 736 697 q 796 704 769 697 z "},"†":{"ha":747,"x_min":56,"x_max":692,"o":"m 692 543 q 464 564 571 560 q 449 565 457 564 q 440 567 442 567 q 435 563 435 567 q 439 542 435 567 q 457 393 457 433 q 450 232 457 351 q 429 -231 431 -103 q 375 -226 400 -226 q 319 -231 344 -226 q 299 232 318 -89 q 292 390 292 347 q 310 542 292 426 q 314 563 314 568 q 308 567 314 567 q 302 565 307 567 q 290 564 297 564 q 56 543 178 561 q 64 622 64 589 q 57 707 64 661 q 292 685 190 689 q 304 683 299 685 q 311 681 310 681 q 315 688 315 681 q 314 697 315 690 q 313 710 313 703 q 288 982 306 839 q 379 976 335 976 q 460 982 424 976 q 436 713 443 829 q 434 696 436 703 q 432 688 432 689 q 438 681 432 681 q 444 684 438 681 q 461 688 451 688 q 690 706 592 692 q 683 622 683 660 q 692 543 683 590 z "},"¢":{"ha":708,"x_min":79,"x_max":640,"o":"m 640 301 q 639 269 640 288 q 592 131 633 190 q 474 44 547 65 q 444 7 444 36 q 447 -99 444 -14 q 375 -93 415 -93 q 306 -99 335 -93 q 310 7 310 -3 q 285 43 310 38 q 79 365 79 89 q 285 715 79 661 q 310 743 310 722 q 307 847 310 794 q 379 842 344 842 q 449 847 418 842 q 444 743 444 769 q 468 714 444 719 q 636 511 625 678 q 636 471 638 492 q 571 475 611 475 q 486 469 529 475 q 485 506 486 483 q 382 611 475 611 q 243 371 243 611 q 374 149 243 149 q 490 274 482 149 q 490 307 490 281 q 599 297 539 297 q 640 301 618 297 z "},"£":{"ha":775,"x_min":36,"x_max":736,"o":"m 735 210 q 492 -17 718 -17 q 253 32 401 -17 q 199 43 219 43 q 158 -3 163 43 q 97 7 125 7 q 36 0 72 7 q 72 82 36 31 q 185 189 125 157 q 208 211 200 197 q 231 285 231 247 q 211 406 231 324 q 181 431 206 431 q 64 428 178 431 q 69 476 69 454 q 64 531 69 501 q 164 526 136 526 q 175 533 175 526 q 171 550 175 536 q 149 692 149 626 q 227 901 149 828 q 446 975 306 975 q 711 764 700 975 q 711 708 713 733 q 632 715 668 715 q 563 708 600 715 q 561 758 564 733 q 446 853 550 853 q 313 710 313 853 q 335 556 313 654 q 342 533 339 536 q 360 526 344 526 q 538 531 383 526 q 532 476 532 501 q 538 429 532 454 q 375 432 439 432 q 367 428 368 432 q 367 415 365 421 q 376 332 376 365 q 328 178 376 232 q 314 158 314 163 q 342 143 314 150 q 372 140 351 143 q 478 124 450 124 q 551 144 526 124 q 582 218 575 165 q 583 267 585 236 q 661 261 615 261 q 733 267 707 261 q 735 210 736 226 z "},"§":{"ha":754,"x_min":49,"x_max":696,"o":"m 696 403 q 597 217 696 286 q 572 206 593 214 q 561 199 561 201 q 592 181 561 197 q 678 13 678 133 q 595 -160 678 -94 q 371 -226 513 -226 q 156 -178 238 -226 q 50 -4 58 -119 q 50 28 49 7 q 128 18 90 18 q 201 28 163 18 q 361 -103 211 -103 q 510 1 510 -103 q 408 111 510 68 q 251 161 331 136 q 67 382 67 229 q 178 578 67 528 q 197 583 186 581 q 208 590 208 586 q 196 600 208 593 q 171 614 178 608 q 106 760 106 667 q 182 919 106 858 q 392 981 258 981 q 686 740 675 981 q 618 747 657 747 q 539 740 579 747 q 394 857 529 857 q 268 761 268 857 q 315 689 268 719 q 407 653 344 671 q 517 619 504 624 q 696 403 696 556 m 544 381 q 488 469 544 435 q 382 514 444 496 q 328 525 343 525 q 300 517 317 525 q 219 401 219 475 q 261 324 219 354 q 354 281 296 299 q 426 265 401 267 q 443 264 450 264 q 463 268 456 264 q 544 381 544 311 z "},"•":{"ha":624,"x_min":142,"x_max":483,"o":"m 483 496 q 433 375 483 425 q 313 325 383 325 q 192 375 242 325 q 142 496 142 425 q 191 619 142 568 q 311 669 240 669 q 433 619 382 669 q 483 496 483 568 z "},"¶":{"ha":754,"x_min":53,"x_max":654,"o":"m 654 -212 q 604 -210 636 -210 q 554 -212 572 -210 q 558 290 558 10 q 554 856 558 564 q 535 886 554 886 q 503 886 535 886 q 472 886 472 886 q 450 858 450 886 q 446 299 446 568 q 450 -212 446 0 q 401 -208 426 -208 q 349 -212 374 -208 q 353 188 353 199 q 351 400 353 290 q 343 434 351 426 q 313 443 335 442 q 53 707 53 463 q 372 969 53 969 q 463 969 400 969 q 554 968 524 968 q 654 969 632 968 q 649 379 649 693 q 654 -212 649 64 z "},"ß":{"ha":786,"x_min":100,"x_max":738,"o":"m 738 274 q 663 61 738 138 q 454 -15 589 -15 q 306 13 364 -15 q 331 110 328 58 q 331 125 331 111 q 433 99 379 99 q 571 279 571 99 q 349 497 571 490 q 319 497 336 497 q 325 557 325 525 q 319 613 325 589 q 354 613 335 611 q 464 649 431 617 q 503 757 503 686 q 390 878 503 878 q 289 829 317 878 q 264 694 265 789 q 260 315 260 364 q 264 0 260 121 q 183 7 226 7 q 100 0 139 7 q 104 256 104 82 q 102 463 104 288 q 100 671 100 639 q 392 989 100 989 q 592 927 521 989 q 663 757 663 865 q 544 585 663 636 q 508 576 538 582 q 489 565 489 572 q 510 556 489 558 q 546 550 544 550 q 738 274 738 500 z "},"´":{"ha":367,"x_min":58,"x_max":350,"o":"m 350 975 q 185 776 225 836 q 131 781 147 781 q 58 776 89 781 q 158 975 67 799 q 254 981 222 981 q 350 975 296 981 z "},"¨":{"ha":367,"x_min":-31,"x_max":397,"o":"m 397 811 q 324 815 369 815 q 243 811 278 815 q 246 885 246 838 q 243 965 246 933 q 325 961 278 961 q 397 965 369 961 q 394 885 394 933 q 397 811 394 838 m 125 811 q 46 814 100 814 q -31 811 -6 814 q -28 886 -28 839 q -31 965 -28 933 q 50 963 0 963 q 125 965 97 963 q 122 889 122 939 q 125 811 122 838 z "},"Æ":{"ha":1183,"x_min":21,"x_max":1100,"o":"m 1100 0 q 831 8 958 8 q 579 0 682 8 q 581 40 581 25 q 576 186 581 161 q 568 213 572 207 q 546 219 564 218 q 456 222 483 222 q 314 218 393 222 q 271 189 285 217 q 190 0 221 85 q 114 7 144 7 q 21 0 61 7 q 451 964 260 515 q 664 957 529 957 q 750 957 696 957 q 839 958 818 958 q 1085 963 986 960 q 1082 888 1082 931 q 1085 817 1082 846 q 760 822 944 822 q 728 817 735 822 q 722 790 722 813 q 725 576 722 769 q 757 550 725 550 q 1069 556 838 550 q 1067 479 1067 528 q 1069 408 1067 431 q 843 414 971 414 l 764 414 q 733 389 733 413 q 739 169 733 267 q 775 143 740 143 q 1100 150 947 143 q 1096 67 1096 108 q 1100 0 1096 28 m 568 376 q 565 548 568 381 q 560 743 561 715 q 560 774 558 756 q 561 799 561 796 q 551 832 561 832 q 529 803 538 832 q 511 751 521 774 q 339 363 451 614 q 335 349 335 354 q 350 340 335 340 q 388 342 361 340 q 429 343 415 343 q 533 343 533 343 q 562 347 558 343 q 568 376 565 351 z "},"Ø":{"ha":861,"x_min":68,"x_max":793,"o":"m 793 475 q 703 101 793 219 q 432 -18 613 -18 q 215 51 300 -18 q 197 63 201 63 q 182 48 192 63 q 139 -19 172 33 q 75 36 108 19 q 133 115 97 67 q 143 136 143 128 q 133 158 143 140 q 68 479 68 282 q 432 978 68 978 q 647 913 565 978 q 667 900 663 900 q 682 914 672 900 q 724 979 717 965 q 788 928 757 940 q 735 851 767 897 q 724 824 724 836 q 731 804 724 818 q 793 475 793 685 m 563 756 q 551 774 563 754 q 432 846 510 846 q 290 764 335 846 q 243 483 243 678 q 257 361 243 414 q 263 331 258 349 q 272 308 269 308 q 289 335 272 308 q 551 724 392 486 q 563 756 563 740 m 621 469 q 600 631 621 575 q 590 651 592 651 q 574 624 592 651 q 313 239 486 497 q 301 206 301 222 q 350 142 301 171 q 431 114 394 114 q 621 469 621 114 z "},"¥":{"ha":754,"x_min":29,"x_max":726,"o":"m 726 950 q 517 553 599 719 q 497 515 497 513 q 506 511 497 511 q 522 513 510 511 q 536 515 533 515 q 672 518 597 517 q 668 471 668 489 q 672 428 668 450 q 479 432 501 432 q 453 411 460 432 q 447 361 447 390 q 468 333 447 333 q 672 338 513 333 q 668 294 668 308 q 672 251 668 281 q 476 253 590 253 q 449 231 449 253 q 454 0 449 183 q 376 7 408 7 q 296 0 333 7 q 301 232 301 164 q 274 253 301 253 q 85 250 279 253 q 88 288 88 267 q 85 338 88 308 l 272 335 q 300 356 300 335 q 293 408 300 385 q 269 432 286 432 q 85 428 286 432 q 89 471 89 454 q 85 518 89 485 q 214 515 126 517 q 228 513 217 515 q 244 511 240 511 q 251 515 251 511 q 232 556 251 515 q 29 949 143 742 q 118 946 63 946 q 204 949 174 946 q 358 600 257 813 q 371 567 360 599 q 383 547 378 547 q 397 567 390 547 q 410 600 410 600 q 565 950 496 774 q 649 946 607 946 q 726 950 690 946 z "},"ª":{"ha":493,"x_min":68,"x_max":419,"o":"m 419 533 q 382 535 400 535 q 315 529 344 535 q 308 586 313 558 q 304 579 307 585 q 290 560 299 568 q 199 525 256 525 q 103 558 138 525 q 68 649 68 592 q 142 764 68 732 q 283 790 183 782 q 306 818 306 792 l 306 826 q 244 889 306 889 q 181 836 181 889 q 181 829 181 835 q 182 819 182 824 q 139 822 169 822 q 89 819 107 822 q 88 832 89 824 q 88 840 88 839 q 132 931 88 900 q 249 961 176 961 q 401 869 383 961 q 407 776 407 840 l 407 649 q 419 533 407 589 m 308 724 q 308 729 308 729 q 301 733 306 735 q 268 729 294 732 q 201 713 219 724 q 171 653 171 696 q 229 601 171 601 q 306 679 303 601 q 308 724 307 692 z "},"º":{"ha":497,"x_min":69,"x_max":431,"o":"m 431 742 q 253 522 431 522 q 69 740 69 522 q 250 961 69 961 q 431 742 431 961 m 326 742 q 250 885 326 885 q 174 736 174 885 q 250 599 174 599 q 326 742 326 599 z "},"æ":{"ha":1103,"x_min":67,"x_max":1043,"o":"m 1043 206 q 765 -11 1011 -11 q 646 10 693 -11 q 543 74 611 24 q 536 84 540 75 q 528 93 532 93 q 515 72 528 93 q 281 -17 464 -17 q 123 38 179 -17 q 67 189 67 93 q 188 379 67 328 q 422 419 250 406 q 463 472 463 422 l 463 489 q 354 600 463 600 q 267 578 293 600 q 242 499 242 556 l 242 489 q 183 493 215 493 q 97 485 139 493 q 96 501 97 490 q 94 514 94 511 q 171 665 94 613 q 361 714 242 714 q 529 661 472 714 q 551 636 532 658 q 569 625 563 625 q 588 639 576 625 q 608 664 601 658 q 767 717 669 717 q 969 626 900 717 q 1038 372 1038 536 q 1035 319 1038 347 q 651 326 939 326 q 624 321 629 326 q 619 294 619 315 q 658 157 619 210 q 768 104 697 104 q 899 214 882 104 q 1008 204 960 204 q 1043 206 1024 204 m 883 454 q 882 475 883 465 q 758 599 864 599 q 666 556 704 599 q 618 450 628 514 q 617 435 617 440 q 638 417 617 417 q 663 415 644 417 q 689 415 679 415 q 856 421 774 415 q 883 454 883 422 m 467 326 l 467 331 q 460 340 467 340 q 448 337 464 340 q 393 329 432 333 q 318 318 340 324 q 224 196 224 293 q 256 126 224 151 q 332 101 288 101 q 412 127 376 101 q 457 201 447 153 q 464 286 464 238 q 465 306 464 293 q 467 326 467 319 z "},"ø":{"ha":724,"x_min":65,"x_max":658,"o":"m 658 349 q 584 76 658 171 q 365 -19 510 -19 q 199 24 267 -19 q 181 32 186 32 q 163 19 172 32 q 129 -28 147 -3 q 68 25 103 -6 q 111 75 71 28 q 122 96 122 88 q 113 118 122 100 q 65 346 65 204 q 141 617 65 521 q 363 714 217 714 q 528 669 461 714 q 547 660 543 660 q 561 672 551 660 q 592 718 575 693 q 656 667 597 707 q 615 617 636 643 q 604 594 604 603 q 611 575 604 588 q 658 349 658 488 m 450 536 q 442 551 450 539 q 363 593 415 593 q 261 542 292 593 q 229 353 229 486 q 236 261 229 289 q 244 242 242 242 q 260 264 249 249 q 442 517 343 381 q 450 536 450 526 m 494 335 q 488 425 494 396 q 479 450 482 450 q 471 439 476 450 q 464 425 465 428 q 283 175 375 304 q 274 153 274 161 q 283 139 274 151 q 363 101 313 101 q 463 156 432 101 q 494 335 494 210 z "},"¿":{"ha":682,"x_min":57,"x_max":633,"o":"m 465 554 q 375 558 422 558 q 294 554 326 558 q 299 644 299 589 q 294 728 299 700 q 379 721 340 721 q 465 728 418 721 q 461 644 461 697 q 465 554 461 593 m 632 19 q 631 -31 633 -6 q 343 -251 611 -251 q 133 -185 210 -251 q 57 11 57 -119 q 97 167 57 104 q 208 267 131 218 q 282 325 263 301 q 310 410 308 358 q 310 449 310 424 q 381 443 344 443 q 453 449 417 443 q 453 401 453 435 q 392 235 451 293 q 282 154 338 194 q 224 19 224 106 q 253 -94 224 -60 q 350 -129 283 -129 q 441 -103 413 -129 q 475 -18 469 -78 q 475 19 476 -4 q 553 15 507 15 q 632 19 606 15 z "},"¡":{"ha":479,"x_min":143,"x_max":338,"o":"m 325 553 q 239 556 286 556 q 153 553 192 556 q 157 644 157 596 q 153 726 157 693 q 232 721 183 721 q 325 726 282 721 q 321 635 321 676 q 325 553 321 590 m 338 -239 q 235 -235 289 -235 q 143 -239 183 -235 q 182 453 143 -47 q 233 450 200 450 q 294 453 267 450 q 338 -239 338 -100 z "},"ƒ":{"ha":754,"x_min":53,"x_max":714,"o":"m 714 979 q 700 913 708 958 q 694 844 699 899 q 629 853 661 853 q 556 808 583 853 q 521 722 540 783 q 501 633 501 660 q 524 618 501 618 q 651 622 539 618 q 639 535 640 576 q 639 511 639 525 q 507 517 522 517 q 479 490 482 517 q 415 74 451 314 q 392 -32 410 32 q 283 -186 360 -144 q 138 -217 228 -217 q 53 -208 96 -217 q 68 -110 65 -167 q 68 -76 68 -103 q 117 -81 90 -81 q 209 -52 185 -81 q 251 74 233 -24 q 294 289 274 182 q 322 501 322 429 q 303 517 322 517 q 200 511 300 517 q 214 611 213 561 q 214 622 214 617 q 317 618 303 618 q 343 643 339 618 q 415 882 375 817 q 631 988 482 988 q 714 979 665 988 z "},"«":{"ha":664,"x_min":58,"x_max":604,"o":"m 604 606 q 494 407 556 524 q 481 388 493 403 q 468 367 468 374 q 478 347 468 360 q 493 326 492 331 q 600 128 544 224 q 531 131 564 131 q 456 128 500 131 q 324 367 400 242 q 457 606 396 482 q 529 603 504 603 q 604 606 560 603 m 340 601 q 225 404 268 488 q 212 387 224 403 q 200 364 200 371 q 211 343 200 356 q 228 322 226 326 q 338 129 288 207 q 268 133 296 133 q 193 129 251 133 q 58 365 132 247 q 193 601 121 460 q 264 600 211 600 q 340 601 324 600 z "},"»":{"ha":664,"x_min":60,"x_max":607,"o":"m 607 367 q 471 131 539 263 q 400 133 436 133 q 325 131 358 133 q 439 329 386 226 q 453 349 440 332 q 464 368 464 361 q 451 391 464 376 q 438 410 439 406 q 326 603 383 514 q 396 599 368 599 q 472 603 414 599 q 607 367 533 485 m 340 365 q 207 128 265 244 q 135 129 183 129 q 60 128 82 129 q 169 325 114 218 q 185 346 171 329 q 196 365 196 358 q 186 385 196 372 q 171 406 172 401 q 64 606 115 517 q 133 601 118 601 q 208 606 142 601 q 340 365 268 485 z "},"…":{"ha":1390,"x_min":169,"x_max":1229,"o":"m 1229 0 q 1147 7 1189 7 q 1056 0 1108 7 q 1061 88 1061 43 q 1056 179 1061 129 q 1143 175 1100 175 q 1229 179 1186 175 q 1226 82 1226 146 q 1229 0 1226 25 m 778 0 q 697 7 739 7 q 604 0 658 7 q 608 86 608 36 q 604 179 608 138 q 693 175 663 175 q 778 179 721 175 q 775 86 775 147 q 778 0 775 26 m 342 0 q 258 7 300 7 q 169 0 221 7 q 174 86 174 40 q 169 179 174 132 q 249 175 210 175 q 342 179 283 175 q 338 85 338 135 q 342 0 338 33 z "},"Œ":{"ha":1217,"x_min":69,"x_max":1133,"o":"m 1133 0 q 879 6 1038 6 q 597 0 726 6 l 597 8 q 599 26 597 15 q 600 43 600 38 q 594 51 600 51 q 579 40 590 51 q 565 28 568 29 q 432 -11 506 -11 q 69 485 69 -11 q 432 983 69 983 q 564 944 506 983 q 580 929 568 942 q 594 917 592 917 q 600 924 599 917 q 599 937 600 926 q 597 950 597 947 l 597 975 q 850 971 715 971 q 1118 975 992 971 q 1114 900 1114 929 q 1118 831 1114 867 q 806 836 974 836 q 778 833 783 836 q 767 813 768 829 q 761 614 761 751 l 761 581 q 793 556 761 556 l 821 556 q 1103 561 935 556 q 1100 485 1100 526 q 1103 417 1100 442 q 867 422 999 422 q 822 422 846 422 q 792 421 797 421 q 761 394 761 421 l 761 361 q 765 167 761 294 q 800 140 767 140 q 1133 147 985 140 q 1129 71 1129 96 q 1133 0 1129 39 m 596 467 q 592 706 596 607 q 572 781 590 754 q 432 851 525 851 q 289 771 333 851 q 240 476 240 683 q 431 119 240 119 q 579 194 542 119 q 593 288 589 217 q 596 467 596 353 z "},"œ":{"ha":1132,"x_min":67,"x_max":1075,"o":"m 1075 206 q 1001 49 1061 106 q 797 -19 929 -19 q 608 44 676 -19 q 593 67 606 47 q 576 81 583 81 q 560 67 569 81 q 543 43 546 46 q 367 -19 478 -19 q 67 346 67 -19 q 142 617 67 521 q 364 714 218 714 q 553 640 485 714 q 568 618 554 639 q 583 604 576 604 q 600 618 592 604 q 615 642 614 640 q 800 717 686 717 q 1002 626 933 717 q 1071 372 1071 536 q 1068 315 1071 343 q 839 322 1011 321 l 685 322 q 658 318 664 322 q 651 294 651 314 q 690 157 651 210 q 800 104 729 104 q 932 214 915 104 q 1031 204 986 206 q 1075 206 1047 204 m 915 454 q 914 475 915 465 q 790 599 896 599 q 690 547 732 599 q 649 435 649 494 q 669 417 649 417 q 753 415 760 415 q 888 421 826 417 q 915 454 915 424 m 496 347 q 465 536 496 479 q 364 593 433 593 q 264 538 294 593 q 231 340 231 478 q 364 101 231 101 q 496 347 496 101 z "},"–":{"ha":786,"x_min":47,"x_max":739,"o":"m 739 301 q 390 304 621 304 q 47 301 163 304 q 50 368 50 324 q 47 443 50 415 q 414 439 224 439 q 739 443 601 439 q 735 369 735 408 q 739 301 735 331 z "},"—":{"ha":1375,"x_min":47,"x_max":1328,"o":"m 1328 301 q 643 307 981 307 q 47 301 306 307 q 50 371 50 322 q 47 442 50 419 q 699 438 385 438 q 1328 442 1015 438 q 1325 371 1325 419 q 1328 301 1325 322 z "},"“":{"ha":583,"x_min":63,"x_max":514,"o":"m 514 618 q 443 622 475 622 q 396 619 411 622 q 326 986 346 811 q 401 982 357 982 q 486 986 449 982 q 514 618 486 833 m 283 618 q 213 622 244 622 q 164 619 179 622 q 63 986 89 814 q 138 982 93 982 q 222 986 185 982 q 283 618 229 843 z "},"”":{"ha":583,"x_min":69,"x_max":521,"o":"m 521 986 q 419 619 494 814 q 371 622 404 622 q 300 618 339 622 q 361 986 354 843 q 446 982 399 982 q 521 986 490 982 m 257 986 q 188 619 238 811 q 140 622 172 622 q 69 618 108 622 q 97 986 97 833 q 182 982 135 982 q 257 986 226 982 z "},"‘":{"ha":314,"x_min":63,"x_max":251,"o":"m 251 619 q 183 624 204 624 q 132 621 157 624 q 63 985 83 793 q 144 982 89 982 q 222 985 197 982 q 251 619 222 815 z "},"’":{"ha":314,"x_min":63,"x_max":251,"o":"m 251 985 q 182 621 231 793 q 131 624 157 624 q 63 619 110 624 q 92 985 92 815 q 169 982 117 982 q 251 985 225 982 z "},"⁄":{"ha":174,"x_min":-224,"x_max":401,"o":"m 401 951 q -122 -12 140 497 q -168 -7 -139 -7 q -224 -12 -210 -7 q 299 950 50 471 q 346 947 315 947 q 401 951 379 947 z "},"¤":{"ha":758,"x_min":93,"x_max":667,"o":"m 667 276 l 567 176 l 465 276 q 379 261 425 261 q 293 276 333 261 l 193 176 l 93 276 l 190 372 q 169 463 169 417 q 190 553 169 510 l 93 651 l 193 750 l 296 647 q 379 663 338 663 q 465 647 425 663 l 567 750 l 667 651 l 569 553 q 589 463 589 513 q 569 372 589 414 l 667 276 m 476 461 q 453 529 476 501 q 379 560 425 560 q 309 531 333 560 q 285 461 285 501 q 310 391 285 421 q 379 361 335 361 q 451 393 425 361 q 476 461 476 421 z "},"‹":{"ha":399,"x_min":58,"x_max":340,"o":"m 340 129 q 269 133 299 133 q 194 129 253 133 q 58 365 140 233 q 193 601 121 460 q 264 600 211 600 q 340 601 324 600 q 225 404 268 488 q 212 387 224 403 q 200 364 200 371 q 211 343 200 356 q 228 322 226 326 q 340 129 275 231 z "},"›":{"ha":399,"x_min":58,"x_max":340,"o":"m 340 365 q 204 129 272 261 q 135 132 169 132 q 58 129 92 132 q 174 328 126 238 q 188 347 175 329 q 197 367 197 360 q 185 391 197 375 q 171 410 172 407 q 60 601 121 506 q 131 599 88 599 q 206 601 167 599 q 340 365 267 483 z "},"":{"ha":792,"x_min":29,"x_max":681,"o":"m 681 821 q 601 825 656 825 q 514 821 546 825 q 517 904 517 846 q 514 985 517 961 q 601 982 556 982 q 681 985 649 982 q 676 901 676 949 q 681 821 676 858 m 679 0 q 599 7 638 7 q 514 0 553 7 q 517 343 517 92 q 514 696 517 613 q 597 688 563 688 q 679 696 631 688 q 674 343 674 485 q 679 0 674 185 m 446 917 q 442 847 446 875 q 376 858 404 858 q 303 807 319 858 q 294 708 294 782 q 310 690 294 690 q 436 694 379 690 q 432 632 432 658 q 436 574 432 604 q 310 576 349 576 q 294 557 294 576 q 297 275 294 510 q 300 0 299 138 q 219 7 263 7 q 138 0 176 7 q 140 299 140 114 q 139 564 140 361 q 124 576 139 576 q 29 574 79 576 q 35 635 35 614 q 29 694 35 658 q 122 690 82 690 q 138 708 138 690 q 138 740 138 715 q 136 767 136 764 q 184 935 136 881 q 335 990 232 990 q 442 972 408 990 q 446 917 446 950 z "},"":{"ha":792,"x_min":29,"x_max":690,"o":"m 690 0 q 613 7 653 7 q 524 0 575 7 q 528 467 528 217 q 524 985 528 717 q 611 981 556 981 q 690 985 654 981 q 688 460 688 799 q 690 0 688 139 m 446 917 q 442 847 446 875 q 376 858 404 858 q 303 807 319 858 q 294 708 294 782 q 310 690 294 690 q 436 694 379 690 q 432 632 432 658 q 436 574 432 604 q 310 576 349 576 q 294 557 294 576 q 297 275 294 510 q 300 0 299 138 q 219 7 263 7 q 138 0 176 7 q 140 299 140 114 q 139 564 140 361 q 124 576 139 576 q 29 574 79 576 q 35 635 35 614 q 29 694 35 658 q 122 690 82 690 q 138 708 138 690 q 138 740 138 715 q 136 767 136 764 q 184 935 136 881 q 335 990 232 990 q 442 972 408 990 q 446 917 446 950 z "},"‡":{"ha":747,"x_min":56,"x_max":692,"o":"m 692 47 q 456 69 560 65 q 443 72 449 69 q 436 74 438 74 q 432 67 432 74 q 433 58 432 64 q 435 44 435 51 q 460 -228 442 -85 q 368 -221 400 -221 q 288 -228 332 -221 q 311 42 304 -75 q 313 58 311 51 q 315 67 315 65 q 311 74 315 74 q 303 71 311 74 q 286 68 296 68 q 57 49 169 64 q 64 132 64 94 q 56 211 64 164 q 283 192 163 196 q 298 190 290 192 q 307 188 306 188 q 313 192 313 188 q 310 200 313 193 q 308 213 308 207 q 296 388 296 317 q 310 542 296 438 q 314 563 314 574 q 308 567 314 567 q 302 565 307 567 q 290 564 297 564 q 56 543 178 561 q 64 622 64 589 q 57 707 64 661 q 292 685 190 689 q 304 683 299 685 q 311 681 310 681 q 315 688 315 681 q 314 697 315 690 q 313 710 313 703 q 288 982 306 839 q 379 976 335 976 q 460 982 424 976 q 436 713 443 829 q 434 696 436 703 q 432 688 432 689 q 438 681 432 681 q 444 684 438 681 q 461 688 451 688 q 690 706 592 692 q 683 622 683 660 q 692 543 683 590 q 464 564 571 560 q 449 565 457 564 q 440 567 442 567 q 435 563 435 567 q 437 554 435 561 q 439 542 439 547 q 453 374 453 433 q 438 214 453 328 q 433 193 433 183 q 439 188 433 188 q 445 190 440 188 q 457 192 450 192 q 690 211 579 194 q 683 132 683 172 q 692 47 683 103 z "},"·":{"ha":319,"x_min":64,"x_max":257,"o":"m 257 333 q 168 338 226 338 q 64 333 107 338 q 67 428 67 364 q 64 526 67 493 q 164 522 103 522 q 257 526 222 522 q 251 432 251 485 q 257 333 251 381 z "},"∙":{"ha":319,"x_min":64,"x_max":257,"o":"m 257 333 q 168 338 226 338 q 64 333 107 338 q 67 428 67 364 q 64 526 67 493 q 164 522 103 522 q 257 526 222 522 q 251 432 251 485 q 257 333 251 381 z "},"‚":{"ha":329,"x_min":65,"x_max":253,"o":"m 253 178 q 183 -187 232 -15 q 132 -185 158 -185 q 65 -187 97 -185 q 93 178 93 -26 q 172 174 131 174 q 253 178 213 174 z "},"„":{"ha":583,"x_min":60,"x_max":511,"o":"m 511 178 q 410 -190 485 3 q 361 -187 394 -187 q 290 -192 329 -187 q 351 178 344 33 q 436 172 401 172 q 511 178 471 172 m 247 178 q 178 -190 228 1 q 131 -187 163 -187 q 60 -192 99 -187 q 88 178 88 24 q 172 172 138 172 q 247 178 207 172 z "},"‰":{"ha":1504,"x_min":54,"x_max":1454,"o":"m 1454 249 q 1406 58 1454 128 q 1253 -15 1354 -15 q 1100 58 1153 -15 q 1051 246 1051 126 q 1100 440 1051 371 q 1251 517 1151 517 q 1406 442 1353 517 q 1454 249 1454 372 m 996 250 q 947 60 996 129 q 794 -14 894 -14 q 642 58 693 -14 q 592 246 592 126 q 642 444 592 369 q 793 518 693 518 q 947 443 894 518 q 996 250 996 374 m 850 965 q 317 -7 596 522 q 201 -7 267 7 q 735 965 401 342 q 850 965 797 956 m 457 700 q 257 438 457 438 q 104 511 157 438 q 54 699 54 579 q 104 895 54 822 q 254 968 154 968 q 408 893 356 968 q 457 700 457 824 m 1332 246 q 1321 369 1332 335 q 1253 424 1304 424 q 1172 253 1172 424 q 1253 81 1172 81 q 1314 119 1296 81 q 1332 246 1332 157 m 872 247 q 861 371 872 336 q 793 425 844 425 q 713 254 713 425 q 794 82 713 82 q 855 120 838 82 q 872 247 872 158 m 336 697 q 318 835 336 794 q 256 875 300 875 q 176 706 176 875 q 257 533 176 533 q 318 571 300 533 q 336 697 336 608 z "},"ı":{"ha":367,"x_min":100,"x_max":265,"o":"m 265 0 q 186 7 224 7 q 100 0 139 7 q 104 343 104 138 q 100 694 104 568 q 185 688 140 688 q 265 694 225 688 q 261 343 261 536 q 265 0 261 139 z "},"ˆ":{"ha":367,"x_min":-40,"x_max":404,"o":"m 404 781 q 331 785 363 785 q 269 781 311 785 q 211 853 250 811 q 197 874 210 854 q 182 886 190 886 q 165 874 174 886 q 153 853 154 854 q 94 781 113 808 q 39 785 69 785 q -40 781 0 785 q 101 978 14 853 q 183 975 140 975 q 263 978 226 975 q 404 781 321 897 z "},"˜":{"ha":367,"x_min":-57,"x_max":424,"o":"m 424 969 l 422 953 q 382 844 417 886 q 283 797 344 797 q 180 827 243 797 q 90 857 117 857 q 33 794 44 857 q -8 799 13 799 q -57 794 -28 799 l -57 813 q -13 922 -57 876 q 88 967 31 967 q 191 937 129 967 q 279 907 253 907 q 335 969 322 907 q 382 965 361 965 q 424 969 403 965 z "},"¯":{"ha":367,"x_min":-19,"x_max":390,"o":"m 390 806 q 201 808 326 808 q -19 806 69 808 q -15 853 -15 826 q -19 906 -15 879 q 188 903 57 903 q 390 906 317 903 q 386 853 386 878 q 390 806 386 826 z "},"ˉ":{"ha":367,"x_min":-19,"x_max":390,"o":"m 390 806 q 201 808 326 808 q -19 806 69 808 q -15 853 -15 826 q -19 906 -15 879 q 188 903 57 903 q 390 906 317 903 q 386 853 386 878 q 390 806 386 826 z "},"˘":{"ha":367,"x_min":-32,"x_max":400,"o":"m 400 965 q 182 767 382 767 q -32 965 -14 767 q 7 963 -17 963 q 51 965 32 963 q 182 869 68 869 q 317 965 292 869 q 357 963 333 963 q 400 965 382 963 z "},"˙":{"ha":367,"x_min":99,"x_max":269,"o":"m 269 768 q 190 772 238 772 q 99 768 143 772 q 101 847 101 793 q 99 939 101 904 q 189 936 131 936 q 269 939 244 936 q 267 849 267 910 q 269 768 267 792 z "},"˚":{"ha":367,"x_min":47,"x_max":321,"o":"m 321 901 q 281 801 321 843 q 183 760 240 760 q 88 800 128 760 q 47 901 47 840 q 87 1001 47 960 q 183 1042 126 1042 q 281 1001 240 1042 q 321 901 321 960 m 257 901 q 235 954 257 932 q 183 976 214 976 q 133 954 154 976 q 113 900 113 932 q 133 847 113 868 q 183 825 154 825 q 235 847 214 825 q 257 901 257 869 z "},"¸":{"ha":367,"x_min":33,"x_max":321,"o":"m 321 -143 q 272 -230 321 -199 q 149 -261 222 -261 q 33 -240 94 -261 q 51 -176 47 -214 q 138 -192 106 -192 q 208 -147 208 -192 q 143 -107 208 -110 l 82 -104 q 144 14 115 -53 l 225 14 l 197 -37 q 188 -53 188 -49 q 193 -57 188 -57 q 215 -50 201 -53 q 321 -143 321 -54 z "},"˝":{"ha":367,"x_min":-51,"x_max":463,"o":"m 463 978 q 292 782 335 842 q 239 786 256 786 q 179 782 211 786 q 294 978 221 850 q 365 972 328 972 q 463 978 406 972 m 232 978 q 63 782 108 849 q 14 786 35 786 q -51 782 -12 786 q 64 978 -8 853 q 133 972 96 972 q 232 978 174 972 z "},"˛":{"ha":367,"x_min":64,"x_max":338,"o":"m 338 -215 q 226 -237 275 -237 q 114 -210 158 -237 q 64 -122 64 -178 q 189 11 64 -28 q 292 11 289 10 l 292 0 q 214 -44 221 -40 q 176 -112 176 -74 q 251 -165 176 -165 q 331 -151 274 -165 q 331 -183 331 -151 q 334 -201 331 -187 q 338 -215 338 -214 z "},"ˇ":{"ha":367,"x_min":-40,"x_max":404,"o":"m 404 978 q 263 781 350 906 q 183 785 225 785 q 101 781 132 785 q -40 978 43 861 q 32 975 -12 975 q 94 978 67 975 q 153 906 114 947 q 167 885 154 904 q 182 872 174 872 q 199 885 190 872 q 211 906 210 904 q 269 978 251 950 q 324 974 294 974 q 404 978 364 974 z "},"Ł":{"ha":646,"x_min":28,"x_max":606,"o":"m 606 150 q 600 72 600 110 q 604 0 600 33 q 354 6 496 6 q 104 0 211 6 q 108 335 108 218 q 110 354 108 340 q 110 374 110 368 q 107 382 110 382 q 92 371 111 382 q 28 329 63 351 q 31 447 29 365 q 92 482 57 463 q 108 524 108 490 q 104 964 108 664 q 193 960 156 960 q 276 964 236 960 q 271 635 271 769 q 269 611 271 628 q 268 588 268 594 q 272 579 268 579 q 292 592 271 579 q 478 710 381 643 q 475 643 475 674 q 478 594 475 615 q 286 481 375 532 q 271 453 271 472 q 274 174 271 415 q 301 143 274 143 l 333 143 q 606 150 488 143 z "},"ł":{"ha":367,"x_min":28,"x_max":340,"o":"m 340 713 q 338 657 338 681 q 338 593 338 593 l 276 540 q 264 460 264 529 q 267 0 263 192 q 188 6 238 6 q 100 0 140 6 q 104 350 104 185 q 106 374 104 358 q 106 397 106 389 q 101 407 106 407 q 28 343 104 407 q 32 422 29 368 q 32 444 32 431 q 31 464 31 458 l 90 514 q 104 549 104 525 q 100 985 104 721 q 179 981 131 981 q 267 985 229 981 q 264 686 265 851 q 263 667 264 676 q 261 654 261 657 q 268 649 261 649 q 303 679 271 649 q 340 713 335 710 z "},"Ð":{"ha":863,"x_min":25,"x_max":793,"o":"m 793 475 q 708 135 793 256 q 424 0 614 0 q 324 2 382 0 q 233 4 267 4 q 104 0 151 4 q 108 413 108 204 q 92 432 108 432 q 25 431 46 432 q 31 481 31 454 q 25 533 31 507 q 92 531 69 531 q 108 549 108 531 q 104 964 108 718 q 218 960 175 960 q 313 962 254 960 q 407 964 371 964 q 793 475 793 964 m 617 475 q 571 729 617 646 q 376 832 514 832 l 308 832 q 275 801 275 832 q 272 547 272 675 q 292 529 272 529 q 431 533 375 529 q 426 483 426 514 q 431 431 426 451 q 290 433 385 433 q 272 417 272 433 q 275 186 272 313 q 285 143 276 153 q 331 132 294 133 q 371 132 331 132 q 571 236 511 132 q 617 475 617 318 z "},"ð":{"ha":744,"x_min":61,"x_max":665,"o":"m 665 386 q 361 -19 665 -19 q 138 72 215 -19 q 61 332 61 163 q 134 582 61 490 q 336 674 207 674 q 447 629 407 674 q 469 613 463 613 q 476 618 476 613 q 467 643 476 618 q 371 800 428 743 q 357 810 361 810 q 347 803 357 810 l 257 735 q 201 813 236 772 l 267 857 q 279 865 279 860 q 263 871 279 865 q 193 883 228 883 q 106 864 157 883 q 139 988 131 918 q 226 1003 181 1003 q 388 963 307 1003 q 403 957 399 957 q 418 965 408 957 l 496 1028 q 556 946 524 978 l 490 906 q 479 896 479 899 q 489 885 479 894 q 621 665 574 803 q 665 386 665 535 m 497 354 q 469 508 497 467 q 363 550 440 550 q 229 333 229 550 q 364 108 229 108 q 497 354 497 108 z "},"Š":{"ha":793,"x_min":67,"x_max":729,"o":"m 621 1217 q 479 1018 567 1144 q 400 1024 429 1024 q 319 1018 360 1024 q 178 1217 261 1100 q 250 1214 206 1214 q 311 1217 283 1214 q 371 1143 331 1188 q 383 1124 372 1142 q 399 1111 390 1111 q 415 1123 407 1111 q 429 1144 422 1135 q 488 1217 469 1189 q 542 1213 513 1213 q 621 1217 581 1213 m 729 268 q 638 58 729 135 q 396 -19 546 -19 q 172 46 257 -19 q 71 244 82 115 q 68 324 67 289 q 146 318 99 318 q 232 325 194 318 q 232 276 231 289 q 410 117 247 117 q 563 247 563 117 q 468 376 563 329 q 297 444 383 410 q 144 542 194 486 q 86 711 86 608 q 169 900 86 824 q 400 982 257 982 q 608 924 525 982 q 707 753 697 863 q 710 694 710 714 q 708 667 708 672 q 638 674 679 674 q 550 665 586 674 q 547 714 550 681 q 501 811 543 776 q 394 846 458 846 q 250 719 250 846 q 333 608 250 651 q 493 544 357 596 q 643 464 592 508 q 729 268 729 390 z "},"š":{"ha":650,"x_min":56,"x_max":589,"o":"m 546 978 q 404 781 492 906 q 325 785 367 785 q 243 781 274 785 q 101 978 185 861 q 174 975 129 975 q 236 978 208 975 q 294 906 256 947 q 308 885 296 904 q 324 872 315 872 q 340 885 332 872 q 353 906 351 904 q 411 978 393 950 q 465 974 436 974 q 546 978 506 974 m 589 206 q 521 46 589 107 q 319 -19 449 -19 q 56 203 56 -19 q 56 211 56 203 q 125 206 85 206 q 197 213 163 206 q 197 204 197 207 q 324 96 200 96 q 442 183 442 96 q 346 275 442 242 q 168 338 183 331 q 74 504 74 392 q 140 654 74 593 q 321 715 207 715 q 522 642 457 715 q 565 540 556 604 q 568 494 568 521 q 500 500 536 500 q 435 494 469 500 q 324 600 431 600 q 219 521 219 600 q 261 453 219 478 q 360 415 288 436 q 514 354 471 383 q 589 206 589 301 z "},"Ý":{"ha":774,"x_min":15,"x_max":771,"o":"m 576 1214 q 411 1015 451 1075 q 357 1019 374 1019 q 285 1015 315 1019 q 385 1214 293 1038 q 481 1219 449 1219 q 576 1214 522 1219 m 771 964 q 496 438 664 765 q 467 301 467 376 q 471 0 467 282 q 396 7 432 7 q 314 0 364 7 q 317 297 317 189 q 288 436 317 375 q 15 964 232 551 q 104 958 63 958 q 188 964 139 958 q 365 613 239 853 q 386 551 375 594 q 399 532 392 532 q 410 551 404 532 q 436 614 418 582 q 613 964 554 831 q 686 958 657 958 q 771 964 714 958 z "},"ý":{"ha":649,"x_min":21,"x_max":628,"o":"m 518 975 q 353 776 393 836 q 299 781 315 781 q 226 776 257 781 q 326 975 235 799 q 422 981 390 981 q 518 975 464 981 m 628 694 q 408 -6 586 569 q 326 -192 368 -135 q 171 -269 267 -269 q 60 -256 119 -269 q 65 -192 65 -225 q 60 -125 65 -165 q 143 -139 103 -139 q 217 -108 189 -139 q 244 -29 244 -78 q 210 111 244 -1 q 21 694 93 486 q 117 690 71 690 q 193 694 169 690 q 313 263 231 547 q 326 196 318 238 q 335 186 329 186 q 342 196 340 186 q 354 261 346 221 q 413 481 379 343 q 467 694 456 651 q 539 689 494 689 q 628 694 575 689 z "},"Þ":{"ha":785,"x_min":107,"x_max":733,"o":"m 733 504 q 399 207 733 207 q 347 207 382 207 q 297 208 311 208 q 274 185 274 208 l 274 165 q 275 74 274 113 q 278 0 278 22 q 193 7 233 7 q 107 0 151 7 q 111 467 111 193 q 107 964 111 719 q 190 957 150 957 q 278 964 232 957 q 276 825 276 896 q 300 806 276 806 q 417 807 393 807 q 651 729 569 807 q 733 504 733 651 m 561 503 q 521 625 561 579 q 393 674 476 674 q 300 671 376 674 q 275 649 276 669 q 272 446 272 579 l 272 368 q 293 340 272 340 q 363 339 336 339 q 515 378 469 339 q 561 503 561 418 z "},"þ":{"ha":760,"x_min":97,"x_max":694,"o":"m 694 364 q 639 97 694 194 q 436 -17 572 -17 q 286 44 333 -17 q 274 68 285 47 q 261 85 265 85 q 257 79 258 85 q 260 30 257 69 q 264 -19 264 -10 l 267 -261 q 190 -254 232 -254 q 100 -261 149 -254 q 104 310 104 4 q 97 985 104 694 q 183 982 131 982 q 263 985 228 982 q 258 842 261 926 q 256 701 256 774 l 256 635 q 253 621 256 631 q 250 608 250 611 q 256 597 250 597 q 272 618 260 597 q 450 710 328 710 q 694 364 694 710 m 528 349 q 498 533 528 475 q 399 592 468 592 q 304 546 347 592 q 267 449 271 510 q 263 283 263 382 q 279 167 263 194 q 392 103 318 103 q 499 165 467 103 q 528 349 528 222 z "},"Ž":{"ha":686,"x_min":38,"x_max":646,"o":"m 556 1217 q 414 1018 501 1144 q 335 1024 364 1024 q 253 1018 293 1024 q 111 1217 194 1100 q 183 1213 153 1213 q 246 1217 204 1213 q 304 1143 268 1182 q 318 1124 304 1143 q 333 1111 325 1111 q 350 1124 342 1111 q 363 1144 361 1143 q 421 1217 403 1189 q 476 1213 446 1213 q 556 1217 515 1213 m 646 0 q 276 6 406 6 q 38 0 104 6 q 40 67 40 26 q 38 124 40 103 q 406 747 204 403 q 439 792 408 753 q 465 832 465 826 q 439 840 465 840 l 378 840 q 49 831 388 840 q 51 894 51 851 q 49 964 51 940 q 392 960 286 960 q 640 964 501 960 q 640 938 640 956 q 642 907 642 917 q 640 881 642 903 q 640 851 640 860 q 231 160 464 557 q 217 143 226 153 q 208 128 208 133 q 215 122 208 124 q 258 126 211 122 q 646 135 401 129 q 640 69 640 97 q 646 0 640 38 z "},"ž":{"ha":604,"x_min":50,"x_max":553,"o":"m 517 978 q 375 781 463 906 q 296 785 338 785 q 215 781 246 785 q 74 978 157 861 q 146 975 101 975 q 207 978 179 975 q 267 906 224 953 q 279 885 268 904 q 294 872 286 872 q 310 884 303 872 q 325 906 318 896 q 383 978 365 950 q 438 974 408 974 q 517 978 476 974 m 553 0 q 251 6 421 6 q 50 0 115 6 q 53 54 53 24 q 50 108 53 83 q 336 536 121 207 q 358 560 340 543 q 372 579 372 575 q 360 583 372 583 q 342 582 354 583 q 324 582 329 582 l 269 582 q 75 575 243 582 q 79 638 79 604 q 75 694 79 665 q 356 689 268 689 q 542 694 461 689 q 544 644 544 664 q 542 593 544 619 q 258 165 496 526 q 231 132 250 154 q 224 119 224 125 q 231 114 224 114 q 288 117 250 115 q 553 122 461 118 q 549 58 549 94 q 553 0 549 31 z "},"½":{"ha":924,"x_min":63,"x_max":869,"o":"m 869 -1 q 693 1 806 1 q 517 -1 579 1 l 517 7 q 515 61 517 39 l 514 83 q 657 210 564 125 q 771 393 771 325 q 690 481 771 481 q 610 388 610 481 q 611 360 610 383 q 565 364 588 364 q 518 360 550 364 q 518 382 518 360 q 567 510 518 465 q 694 556 615 556 q 822 513 774 556 q 869 394 869 471 q 814 254 869 322 q 649 106 776 208 q 619 82 619 82 q 629 78 619 78 q 644 79 632 78 q 663 81 657 81 l 733 81 q 869 85 790 81 q 867 38 867 65 q 869 -1 867 15 m 750 971 q 213 -12 451 451 q 167 -8 200 -8 q 113 -12 124 -8 q 646 971 389 476 q 693 967 671 967 q 750 971 728 967 m 267 417 q 219 421 247 421 q 164 417 189 421 q 167 657 167 513 l 167 785 q 167 824 167 824 q 161 835 167 833 q 140 826 167 833 q 63 810 92 814 q 65 846 65 825 q 63 879 65 867 q 199 969 165 899 q 232 967 211 967 q 267 969 251 967 q 264 693 264 850 q 267 417 264 533 z "},"¼":{"ha":924,"x_min":68,"x_max":863,"o":"m 863 121 q 803 122 829 122 q 786 106 786 122 q 789 0 786 83 q 742 4 763 4 q 693 0 718 4 q 696 106 696 68 q 676 124 696 124 q 474 121 571 124 q 476 157 476 142 q 475 188 476 176 q 669 550 604 415 q 731 547 690 547 q 788 550 767 547 q 785 213 785 410 q 801 194 785 194 q 833 196 811 194 q 863 197 856 197 q 861 161 861 188 q 863 121 861 129 m 763 971 q 225 -12 464 451 q 179 -7 208 -7 q 125 -12 139 -7 q 658 971 401 476 q 706 967 683 967 q 763 971 740 967 m 274 417 q 226 421 254 421 q 169 417 194 421 q 172 657 172 513 l 172 785 q 174 806 172 792 q 174 824 174 818 q 167 835 174 833 q 146 826 172 833 q 68 810 97 814 q 71 846 71 825 q 68 879 71 867 q 204 969 171 899 q 238 967 217 967 q 274 969 258 967 q 271 693 271 850 q 274 417 271 533 m 699 436 q 693 443 699 443 q 685 433 689 443 q 669 401 678 415 q 568 213 636 339 q 561 199 561 200 q 567 194 561 194 q 578 194 567 194 l 679 194 q 696 213 696 194 q 697 242 696 221 q 697 274 697 261 q 696 333 697 292 q 696 388 696 371 q 697 422 696 401 q 699 436 699 443 z "},"¹":{"ha":464,"x_min":94,"x_max":300,"o":"m 300 417 q 253 421 281 421 q 196 417 221 421 q 199 657 199 513 l 199 785 q 200 806 199 792 q 200 824 200 818 q 193 835 200 833 q 172 826 199 833 q 94 810 124 814 q 97 846 97 825 q 94 879 97 867 q 232 969 199 899 q 264 967 244 967 q 300 969 285 967 q 297 693 297 850 q 300 417 297 533 z "},"¾":{"ha":924,"x_min":44,"x_max":863,"o":"m 804 971 q 267 -12 506 451 q 221 -7 250 -7 q 167 -12 181 -7 q 700 971 443 476 q 747 967 725 967 q 804 971 782 967 m 863 121 q 803 122 829 122 q 786 106 786 122 q 789 0 786 83 q 742 4 763 4 q 693 0 718 4 q 696 106 696 68 q 676 124 696 124 q 474 121 571 124 q 476 157 476 142 q 475 188 476 176 q 669 550 604 415 q 731 547 690 547 q 788 550 767 547 q 785 213 785 410 q 801 194 785 194 q 833 196 811 194 q 863 197 856 197 q 861 161 861 188 q 863 121 861 129 m 414 574 q 361 455 414 497 q 219 413 308 413 q 99 447 144 413 q 46 553 49 485 q 44 582 44 554 q 96 578 72 578 q 139 582 118 578 q 139 571 139 572 q 222 486 143 486 q 311 571 311 486 q 214 667 311 667 q 186 665 206 667 q 157 665 168 665 q 160 700 160 682 q 157 735 160 718 q 188 733 168 735 q 217 732 208 732 q 303 819 303 732 q 224 904 303 904 q 144 815 146 904 q 96 819 119 819 q 53 815 72 819 q 53 843 53 838 q 108 944 58 908 q 226 978 154 978 q 354 936 308 978 q 400 826 400 894 q 335 715 400 750 q 317 710 331 714 q 304 703 304 707 q 319 696 304 697 q 336 693 333 694 q 414 574 414 661 m 699 436 q 693 443 699 443 q 685 433 689 443 q 669 401 678 415 q 568 213 636 339 q 561 199 561 200 q 567 194 561 194 q 578 194 567 194 l 679 194 q 696 213 696 194 q 697 242 696 221 q 697 274 697 261 q 696 333 697 292 q 696 388 696 371 q 697 422 696 401 q 699 436 699 443 z "},"³":{"ha":464,"x_min":44,"x_max":414,"o":"m 414 574 q 361 455 414 497 q 219 413 308 413 q 99 447 144 413 q 46 553 49 485 q 44 582 44 554 q 96 578 72 578 q 139 582 118 578 q 139 571 139 572 q 222 486 143 486 q 311 571 311 486 q 214 667 311 667 q 186 665 206 667 q 157 665 168 665 q 160 700 160 682 q 157 735 160 718 q 188 733 168 735 q 217 732 208 732 q 303 819 303 732 q 224 904 303 904 q 144 815 146 904 q 96 819 119 819 q 53 815 72 819 q 53 843 53 838 q 108 944 58 908 q 226 978 154 978 q 354 936 308 978 q 400 826 400 894 q 335 715 400 750 q 317 710 331 714 q 304 703 304 707 q 319 696 304 697 q 336 693 333 694 q 414 574 414 661 z "},"²":{"ha":464,"x_min":47,"x_max":403,"o":"m 403 422 q 226 425 339 425 q 49 422 111 425 l 49 431 q 49 457 49 438 q 47 485 47 475 l 47 507 q 189 632 96 547 q 304 817 304 749 q 224 904 304 904 q 143 811 143 904 q 143 783 143 783 q 97 788 119 788 q 51 783 83 788 q 50 806 50 813 q 99 934 50 889 q 228 979 147 979 q 354 937 307 979 q 401 818 401 894 q 347 678 401 744 q 182 529 310 632 q 153 506 153 506 q 163 501 153 501 q 178 503 165 501 q 196 504 190 504 l 267 504 q 403 508 324 504 q 400 461 400 489 q 403 422 400 439 z "},"¦":{"ha":322,"x_min":107,"x_max":214,"o":"m 214 610 q 164 613 193 613 q 107 610 135 613 q 111 797 111 750 q 107 974 111 851 q 160 971 131 971 q 214 974 189 971 q 211 793 211 899 q 214 610 211 693 m 214 0 q 160 3 193 3 q 107 0 126 3 q 111 188 111 140 q 107 364 111 240 q 164 361 140 361 q 214 364 188 361 q 211 182 211 286 q 214 0 211 82 z "},"­":{"ha":806,"x_min":81,"x_max":726,"o":"m 726 290 q 375 294 542 294 q 81 290 208 294 q 83 351 83 313 q 81 424 83 393 q 400 419 217 419 q 726 424 586 419 q 721 353 721 388 q 726 290 721 317 z "},"−":{"ha":806,"x_min":81,"x_max":726,"o":"m 726 290 q 375 294 542 294 q 81 290 208 294 q 83 351 83 313 q 81 424 83 393 q 400 419 217 419 q 726 424 586 419 q 721 353 721 388 q 726 290 721 317 z "},"×":{"ha":806,"x_min":106,"x_max":700,"o":"m 700 564 q 517 378 625 488 q 490 347 490 351 q 515 321 490 346 q 699 138 596 240 q 606 40 639 96 q 428 233 547 103 q 404 257 407 257 q 376 231 403 257 q 197 39 375 229 q 106 133 154 96 q 292 319 185 213 q 315 347 315 343 q 290 375 315 350 q 106 560 211 454 q 200 656 165 608 q 376 464 317 526 q 390 447 383 456 q 403 438 396 438 q 417 447 410 438 q 431 464 425 456 q 608 657 517 553 q 700 564 642 607 z "},"Ä":{"ha":831,"x_min":22,"x_max":807,"o":"m 621 1040 q 546 1044 593 1044 q 465 1040 500 1044 q 468 1115 468 1067 q 465 1196 468 1164 q 547 1192 500 1192 q 621 1196 593 1192 q 618 1115 618 1164 q 621 1040 618 1067 m 349 1042 q 269 1044 324 1044 q 192 1042 217 1044 q 194 1117 194 1069 q 192 1196 194 1164 q 272 1193 222 1193 q 349 1196 321 1193 q 344 1119 344 1157 q 349 1042 344 1081 m 807 -3 q 721 4 768 4 q 628 -3 678 4 q 578 186 608 88 q 546 208 571 207 q 394 213 444 213 q 278 208 379 213 q 238 186 244 207 q 188 -3 208 92 q 107 4 143 4 q 22 -3 63 4 q 169 488 96 242 q 303 965 267 815 q 424 960 361 960 q 528 965 478 960 q 807 -3 574 771 m 539 346 q 531 369 539 339 q 429 739 494 503 q 418 796 425 753 q 408 815 415 815 q 394 782 401 815 q 386 739 390 760 q 336 542 361 640 q 276 349 307 421 q 275 342 275 344 q 289 336 276 336 q 349 338 308 336 q 413 340 390 340 q 470 338 432 340 q 526 336 508 336 q 539 346 539 336 z "},"Å":{"ha":831,"x_min":22,"x_max":807,"o":"m 553 1118 q 513 1018 553 1060 q 415 976 472 976 q 319 1017 360 976 q 279 1118 279 1057 q 319 1217 279 1176 q 415 1258 358 1258 q 513 1217 472 1258 q 553 1118 553 1176 m 807 -3 q 721 4 768 4 q 628 -3 678 4 q 578 186 608 88 q 546 208 571 207 q 394 213 444 213 q 278 208 379 213 q 238 186 244 207 q 188 -3 208 92 q 107 4 143 4 q 22 -3 63 4 q 169 488 96 242 q 303 965 267 815 q 424 960 361 960 q 528 965 478 960 q 807 -3 574 771 m 489 1117 q 467 1171 489 1149 q 415 1193 446 1193 q 365 1171 386 1193 q 344 1117 344 1149 q 365 1063 344 1085 q 415 1040 386 1040 q 467 1063 446 1040 q 489 1117 489 1085 m 539 346 q 531 369 539 339 q 429 739 494 503 q 418 796 425 753 q 408 815 415 815 q 394 782 401 815 q 386 739 390 760 q 336 542 361 640 q 276 349 307 421 q 275 342 275 344 q 289 336 276 336 q 349 338 308 336 q 413 340 390 340 q 470 338 432 340 q 526 336 508 336 q 539 346 539 336 z "},"Ç":{"ha":810,"x_min":74,"x_max":754,"o":"m 754 315 q 746 231 754 279 q 500 -3 710 26 q 442 -49 442 -11 q 449 -57 442 -57 q 461 -56 450 -57 q 479 -54 472 -54 q 549 -78 521 -54 q 576 -144 576 -103 q 525 -232 576 -200 q 404 -261 479 -261 q 288 -240 349 -261 q 306 -176 301 -214 q 393 -192 360 -192 q 464 -147 464 -192 q 414 -108 464 -108 q 372 -115 392 -108 q 339 -101 354 -104 q 379 -29 347 -82 q 385 -15 385 -19 q 358 -3 385 -7 q 74 464 74 40 q 433 976 74 976 q 743 739 701 976 q 753 622 753 685 q 674 628 714 628 q 583 624 621 628 l 582 649 q 433 842 571 842 q 292 758 336 842 q 244 467 244 669 q 276 224 244 300 q 429 125 319 125 q 590 342 586 125 q 697 331 640 331 q 754 336 719 331 l 754 315 z "},"É":{"ha":725,"x_min":104,"x_max":640,"o":"m 560 1214 q 393 1015 496 1143 q 340 1019 356 1019 q 268 1015 299 1019 q 367 1214 279 1046 q 464 1218 414 1218 q 560 1214 519 1218 m 640 0 q 388 6 544 6 q 104 0 233 6 q 108 454 108 192 q 104 963 108 715 q 358 958 222 958 q 626 963 500 958 q 622 889 622 917 q 626 817 622 853 q 313 822 482 822 q 283 819 290 822 q 275 799 276 815 q 269 607 269 736 l 269 576 q 301 551 269 551 l 326 551 q 611 557 442 551 q 608 479 608 522 q 611 410 608 435 q 372 415 506 415 q 329 415 353 415 q 300 414 304 414 q 269 388 269 414 l 269 363 q 272 169 269 260 q 278 147 272 151 q 307 143 285 143 q 640 150 492 143 q 638 71 638 115 q 640 0 638 25 z "},"Ñ":{"ha":931,"x_min":104,"x_max":826,"o":"m 694 1199 l 693 1182 q 653 1074 688 1115 q 553 1026 614 1026 q 450 1057 513 1026 q 361 1088 388 1088 q 304 1024 315 1088 q 261 1028 283 1028 q 213 1024 242 1028 l 214 1043 q 260 1153 218 1108 q 357 1197 301 1197 q 460 1167 399 1197 q 549 1136 522 1136 q 604 1199 592 1136 q 651 1194 631 1194 q 694 1199 674 1194 m 826 964 q 824 467 824 806 l 824 -1 q 717 7 776 7 q 611 -1 661 7 l 308 667 q 276 749 303 679 q 253 793 260 793 q 247 768 247 793 q 253 733 247 774 q 258 646 258 693 l 258 453 q 264 -1 258 322 q 189 7 224 7 q 104 -1 158 7 q 108 453 108 254 q 104 964 108 651 q 225 960 156 960 q 328 964 288 960 q 619 326 518 543 q 661 219 628 310 q 681 185 667 203 q 685 201 685 185 q 679 248 685 203 q 674 324 674 293 l 674 461 q 668 964 674 572 q 747 958 714 958 q 826 964 783 958 z "},"Ö":{"ha":861,"x_min":69,"x_max":793,"o":"m 642 1042 q 568 1046 614 1046 q 488 1042 522 1046 q 490 1115 490 1068 q 488 1196 490 1164 q 569 1192 522 1192 q 642 1196 614 1192 q 639 1115 639 1164 q 642 1042 639 1068 m 369 1042 q 290 1044 344 1044 q 214 1042 239 1044 q 217 1117 217 1069 q 214 1196 217 1164 q 294 1193 244 1193 q 369 1196 342 1193 q 367 1119 367 1169 q 369 1042 367 1068 m 793 475 q 703 101 793 219 q 432 -18 613 -18 q 69 479 69 -18 q 432 978 69 978 q 703 856 614 978 q 793 475 793 733 m 622 472 q 432 846 622 846 q 289 765 333 846 q 240 471 240 678 q 431 114 240 114 q 622 472 622 114 z "},"Ü":{"ha":856,"x_min":106,"x_max":753,"o":"m 640 1040 q 567 1044 613 1044 q 486 1040 521 1044 q 489 1115 489 1067 q 486 1196 489 1164 q 568 1192 521 1192 q 640 1196 613 1192 q 638 1115 638 1164 q 640 1040 638 1067 m 368 1042 q 289 1044 343 1044 q 213 1042 238 1044 q 215 1117 215 1069 q 213 1196 215 1164 q 293 1193 243 1193 q 368 1196 340 1193 q 365 1119 365 1169 q 368 1042 365 1068 m 753 311 q 426 -18 753 -18 q 106 304 106 -18 l 106 314 q 107 492 106 372 q 108 676 108 613 q 106 964 108 828 q 196 958 153 958 q 278 964 242 958 q 274 603 274 822 q 276 307 274 501 q 431 124 279 124 q 549 171 514 124 q 583 313 582 214 q 586 625 586 463 q 582 964 586 838 q 668 958 625 958 q 753 964 718 958 q 750 708 750 861 q 751 513 750 643 q 753 318 753 383 l 753 311 z "},"á":{"ha":722,"x_min":67,"x_max":643,"o":"m 551 975 q 386 776 426 836 q 332 781 349 781 q 260 776 290 781 q 360 975 268 799 q 456 981 424 981 q 551 975 497 981 m 643 0 q 593 1 621 1 q 478 -7 521 1 q 469 68 469 39 q 464 90 469 90 q 449 65 463 90 q 281 -17 401 -17 q 123 38 179 -17 q 67 189 67 93 q 188 379 67 328 q 422 419 250 406 q 463 472 463 422 l 463 489 q 354 600 463 600 q 240 515 244 600 q 242 489 240 522 q 183 493 215 493 q 97 485 139 493 q 96 501 97 490 q 94 514 94 511 q 171 665 94 613 q 361 714 242 714 q 613 564 583 714 q 624 408 624 507 l 624 190 q 643 0 625 88 m 467 331 q 460 340 467 340 q 448 337 464 340 q 393 329 432 333 q 318 318 340 324 q 224 196 224 293 q 311 104 224 114 q 328 103 325 103 q 457 201 438 103 q 464 286 464 238 q 465 307 464 292 q 467 331 467 322 z "},"à":{"ha":722,"x_min":67,"x_max":643,"o":"m 449 782 q 389 785 426 785 q 333 782 361 785 q 165 985 279 851 q 257 988 203 988 q 356 985 310 988 q 449 782 429 817 m 643 0 q 593 1 621 1 q 478 -7 521 1 q 469 68 469 39 q 464 90 469 90 q 449 65 463 90 q 281 -17 401 -17 q 123 38 179 -17 q 67 189 67 93 q 188 379 67 328 q 422 419 250 406 q 463 472 463 422 l 463 489 q 354 600 463 600 q 240 515 244 600 q 242 489 240 522 q 183 493 215 493 q 97 485 139 493 q 96 501 97 490 q 94 514 94 511 q 171 665 94 613 q 361 714 242 714 q 613 564 583 714 q 624 408 624 507 l 624 190 q 643 0 625 88 m 467 331 q 460 340 467 340 q 448 337 464 340 q 393 329 432 333 q 318 318 340 324 q 224 196 224 293 q 311 104 224 114 q 328 103 325 103 q 457 201 438 103 q 464 286 464 238 q 465 307 464 292 q 467 331 467 322 z "},"â":{"ha":722,"x_min":67,"x_max":643,"o":"m 572 781 q 500 785 531 785 q 439 781 481 785 q 379 853 422 806 q 367 874 378 854 q 351 886 360 886 q 335 874 343 886 q 321 853 328 863 q 263 781 281 808 q 208 785 238 785 q 129 781 169 785 q 271 978 183 853 q 354 975 311 975 q 431 978 396 975 q 572 781 489 897 m 643 0 q 593 1 621 1 q 478 -7 521 1 q 469 68 469 39 q 464 90 469 90 q 449 65 463 90 q 281 -17 401 -17 q 123 38 179 -17 q 67 189 67 93 q 188 379 67 328 q 422 419 250 406 q 463 472 463 422 l 463 489 q 354 600 463 600 q 240 515 244 600 q 242 489 240 522 q 183 493 215 493 q 97 485 139 493 q 96 501 97 490 q 94 514 94 511 q 171 665 94 613 q 361 714 242 714 q 613 564 583 714 q 624 408 624 507 l 624 190 q 643 0 625 88 m 467 331 q 460 340 467 340 q 448 337 464 340 q 393 329 432 333 q 318 318 340 324 q 224 196 224 293 q 311 104 224 114 q 328 103 325 103 q 457 201 438 103 q 464 286 464 238 q 465 307 464 292 q 467 331 467 322 z "},"ä":{"ha":722,"x_min":67,"x_max":643,"o":"m 572 811 q 499 815 544 815 q 417 811 451 815 q 419 885 419 838 q 417 965 419 933 q 500 961 451 961 q 572 965 544 961 q 569 885 569 933 q 572 811 569 838 m 300 811 q 221 814 275 814 q 143 811 168 814 q 146 886 146 839 q 143 965 146 933 q 225 963 174 963 q 300 965 272 963 q 296 889 296 926 q 300 811 296 850 m 643 0 q 593 1 621 1 q 478 -7 521 1 q 469 68 469 39 q 464 90 469 90 q 449 65 463 90 q 281 -17 401 -17 q 123 38 179 -17 q 67 189 67 93 q 188 379 67 328 q 422 419 250 406 q 463 472 463 422 l 463 489 q 354 600 463 600 q 240 515 244 600 q 242 489 240 522 q 183 493 215 493 q 97 485 139 493 q 96 501 97 490 q 94 514 94 511 q 171 665 94 613 q 361 714 242 714 q 613 564 583 714 q 624 408 624 507 l 624 190 q 643 0 625 88 m 467 331 q 460 340 467 340 q 448 337 464 340 q 393 329 432 333 q 318 318 340 324 q 224 196 224 293 q 311 104 224 114 q 328 103 325 103 q 457 201 438 103 q 464 286 464 238 q 465 307 464 292 q 467 331 467 322 z "},"ã":{"ha":722,"x_min":67,"x_max":643,"o":"m 597 965 l 596 949 q 556 840 590 882 q 457 793 518 793 q 353 823 417 793 q 264 853 290 853 q 208 790 219 853 q 165 793 194 793 q 117 790 136 793 l 118 808 q 165 918 124 874 q 261 963 206 963 q 365 932 303 963 q 453 901 426 901 q 508 965 496 901 q 556 961 535 961 q 597 965 576 961 m 643 0 q 593 1 621 1 q 478 -7 521 1 q 469 68 469 39 q 464 90 469 90 q 449 65 463 90 q 281 -17 401 -17 q 123 38 179 -17 q 67 189 67 93 q 188 379 67 328 q 422 419 250 406 q 463 472 463 422 l 463 489 q 354 600 463 600 q 240 515 244 600 q 242 489 240 522 q 183 493 215 493 q 97 485 139 493 q 96 501 97 490 q 94 514 94 511 q 171 665 94 613 q 361 714 242 714 q 613 564 583 714 q 624 408 624 507 l 624 190 q 643 0 625 88 m 467 331 q 460 340 467 340 q 448 337 464 340 q 393 329 432 333 q 318 318 340 324 q 224 196 224 293 q 311 104 224 114 q 328 103 325 103 q 457 201 438 103 q 464 286 464 238 q 465 307 464 292 q 467 331 467 322 z "},"å":{"ha":722,"x_min":67,"x_max":643,"o":"m 496 901 q 455 801 496 843 q 357 760 414 760 q 261 800 301 760 q 221 901 221 840 q 260 1001 221 960 q 357 1042 300 1042 q 455 1001 414 1042 q 496 901 496 960 m 643 0 q 593 1 621 1 q 478 -7 521 1 q 469 68 469 39 q 464 90 469 90 q 449 65 463 90 q 281 -17 401 -17 q 123 38 179 -17 q 67 189 67 93 q 188 379 67 328 q 422 419 250 406 q 463 472 463 422 l 463 489 q 354 600 463 600 q 240 515 244 600 q 242 489 240 522 q 183 493 215 493 q 97 485 139 493 q 96 501 97 490 q 94 514 94 511 q 171 665 94 613 q 361 714 242 714 q 613 564 583 714 q 624 408 624 507 l 624 190 q 643 0 625 88 m 431 901 q 410 955 431 933 q 358 976 389 976 q 308 954 329 976 q 286 900 286 932 q 307 847 286 868 q 357 825 328 825 q 409 847 388 825 q 431 901 431 869 m 467 331 q 460 340 467 340 q 448 337 464 340 q 393 329 432 333 q 318 318 340 324 q 224 196 224 293 q 311 104 224 114 q 328 103 325 103 q 457 201 438 103 q 464 286 464 238 q 465 307 464 292 q 467 331 467 322 z "},"ç":{"ha":669,"x_min":65,"x_max":619,"o":"m 619 449 q 544 454 575 454 q 460 446 501 454 l 458 469 q 357 594 451 594 q 258 535 288 594 q 229 339 229 475 q 353 103 229 103 q 467 257 465 103 q 558 244 511 244 q 617 250 590 244 q 617 226 617 235 q 410 -15 601 11 q 364 -51 364 -22 q 371 -57 364 -57 q 382 -55 372 -57 q 399 -53 392 -53 q 469 -78 439 -53 q 499 -146 499 -104 q 452 -228 499 -196 q 326 -261 406 -261 q 211 -240 272 -261 q 229 -176 225 -214 q 315 -192 283 -192 q 367 -178 347 -192 q 386 -146 386 -164 q 343 -111 386 -111 q 306 -118 325 -111 q 263 -101 285 -106 q 289 -54 269 -86 q 303 -24 303 -29 q 288 -12 303 -15 q 65 336 65 28 q 140 617 65 518 q 364 715 215 715 q 618 474 604 715 l 619 449 z "},"é":{"ha":701,"x_min":64,"x_max":644,"o":"m 558 975 q 392 776 494 904 q 339 781 354 781 q 267 776 297 781 q 365 975 278 807 q 463 981 429 981 q 558 975 504 981 m 644 206 q 568 47 632 107 q 367 -19 497 -19 q 64 331 64 -19 q 144 612 64 507 q 369 717 225 717 q 572 626 503 717 q 640 372 640 536 q 638 315 640 343 q 415 322 582 321 q 251 322 279 322 q 227 317 232 322 q 222 294 222 313 q 260 157 222 210 q 369 104 299 104 q 501 214 485 104 q 604 204 556 206 q 644 206 619 204 m 486 454 q 485 475 486 465 q 360 599 467 599 q 265 553 303 599 q 219 443 228 508 q 219 431 219 438 q 239 417 221 417 q 331 417 288 417 q 469 422 386 417 q 486 454 486 426 z "},"è":{"ha":701,"x_min":64,"x_max":644,"o":"m 458 782 q 399 785 436 785 q 343 782 371 785 q 175 985 289 851 q 267 988 213 988 q 365 985 319 988 q 458 782 439 817 m 644 206 q 568 47 632 107 q 367 -19 497 -19 q 64 331 64 -19 q 144 612 64 507 q 369 717 225 717 q 572 626 503 717 q 640 372 640 536 q 638 315 640 343 q 415 322 582 321 q 251 322 279 322 q 227 317 232 322 q 222 294 222 313 q 260 157 222 210 q 369 104 299 104 q 501 214 485 104 q 604 204 556 206 q 644 206 619 204 m 486 454 q 485 475 486 465 q 360 599 467 599 q 265 553 303 599 q 219 443 228 508 q 219 431 219 438 q 239 417 221 417 q 331 417 288 417 q 469 422 386 417 q 486 454 486 426 z "},"ê":{"ha":701,"x_min":64,"x_max":644,"o":"m 579 781 q 507 785 538 785 q 444 781 486 785 q 386 853 425 811 q 372 874 385 854 q 357 886 365 886 q 340 874 349 886 q 328 853 329 854 q 269 781 288 808 q 214 785 244 785 q 136 781 176 785 q 276 978 190 853 q 358 974 313 974 q 438 978 404 974 q 579 781 496 897 m 644 206 q 568 47 632 107 q 367 -19 497 -19 q 64 331 64 -19 q 144 612 64 507 q 369 717 225 717 q 572 626 503 717 q 640 372 640 536 q 638 315 640 343 q 415 322 582 321 q 251 322 279 322 q 227 317 232 322 q 222 294 222 313 q 260 157 222 210 q 369 104 299 104 q 501 214 485 104 q 604 204 556 206 q 644 206 619 204 m 486 454 q 485 475 486 465 q 360 599 467 599 q 265 553 303 599 q 219 443 228 508 q 219 431 219 438 q 239 417 221 417 q 331 417 288 417 q 469 422 386 417 q 486 454 486 426 z "},"ë":{"ha":701,"x_min":64,"x_max":644,"o":"m 574 811 q 500 815 546 815 q 419 811 454 815 q 422 885 422 838 q 419 965 422 933 q 501 961 454 961 q 574 965 546 961 q 571 885 571 933 q 574 811 571 838 m 301 811 q 222 814 276 814 q 144 811 169 814 q 147 886 147 839 q 144 965 147 933 q 226 963 175 963 q 301 965 274 963 q 299 889 299 939 q 301 811 299 838 m 644 206 q 568 47 632 107 q 367 -19 497 -19 q 64 331 64 -19 q 144 612 64 507 q 369 717 225 717 q 572 626 503 717 q 640 372 640 536 q 638 315 640 343 q 415 322 582 321 q 251 322 279 322 q 227 317 232 322 q 222 294 222 313 q 260 157 222 210 q 369 104 299 104 q 501 214 485 104 q 604 204 556 206 q 644 206 619 204 m 486 454 q 485 475 486 465 q 360 599 467 599 q 265 553 303 599 q 219 443 228 508 q 219 431 219 438 q 239 417 221 417 q 331 417 288 417 q 469 422 386 417 q 486 454 486 426 z "},"í":{"ha":367,"x_min":79,"x_max":372,"o":"m 372 975 q 206 776 308 904 q 151 781 168 781 q 79 776 110 781 q 179 975 88 799 q 275 981 243 981 q 372 975 318 981 m 265 0 q 186 7 224 7 q 100 0 139 7 q 104 343 104 138 q 100 694 104 531 q 185 688 140 688 q 265 694 225 688 q 261 343 261 536 q 265 0 261 139 z "},"ì":{"ha":367,"x_min":-15,"x_max":269,"o":"m 269 782 q 208 785 247 785 q 154 782 182 785 q -15 985 114 833 q 78 988 22 988 q 176 985 131 988 q 269 782 250 817 m 265 0 q 186 7 224 7 q 100 0 139 7 q 104 343 104 138 q 100 694 104 568 q 185 688 140 688 q 265 694 225 688 q 261 343 261 536 q 265 0 261 139 z "},"î":{"ha":367,"x_min":-40,"x_max":404,"o":"m 404 781 q 331 785 363 785 q 269 781 311 785 q 211 853 250 811 q 197 874 210 854 q 182 886 190 886 q 165 874 174 886 q 153 853 154 854 q 94 781 113 808 q 39 785 69 785 q -40 781 0 785 q 101 978 14 853 q 183 974 138 974 q 263 978 229 974 q 404 781 321 897 m 265 0 q 186 7 224 7 q 100 0 139 7 q 104 343 104 138 q 100 694 104 568 q 185 688 140 688 q 265 694 225 688 q 261 343 261 536 q 265 0 261 139 z "},"ï":{"ha":367,"x_min":-33,"x_max":394,"o":"m 394 811 q 321 815 367 815 q 240 811 275 815 q 243 885 243 838 q 240 965 243 933 q 322 961 275 961 q 394 965 367 961 q 392 885 392 933 q 394 811 392 838 m 122 811 q 43 814 97 814 q -33 811 -8 814 q -31 886 -31 839 q -33 965 -31 933 q 47 963 -3 963 q 122 965 94 963 q 119 889 119 939 q 122 811 119 838 m 265 0 q 186 7 224 7 q 100 0 139 7 q 104 343 104 138 q 100 694 104 531 q 185 688 140 688 q 265 694 225 688 q 261 343 261 536 q 265 0 261 139 z "},"ñ":{"ha":756,"x_min":85,"x_max":658,"o":"m 597 965 l 596 949 q 556 840 590 882 q 457 793 518 793 q 353 823 417 793 q 264 853 290 853 q 208 790 219 853 q 165 793 194 793 q 117 790 136 793 l 118 808 q 165 918 124 874 q 261 963 206 963 q 365 932 303 963 q 453 901 426 901 q 508 965 496 901 q 556 961 535 961 q 597 965 576 961 m 658 0 q 576 8 615 8 q 493 0 538 8 q 494 242 494 51 q 493 465 494 385 q 401 586 490 586 q 310 547 347 586 q 264 413 265 500 q 263 285 263 290 q 264 133 263 235 q 265 0 265 32 q 188 7 236 7 q 100 0 140 7 q 101 215 101 65 q 99 581 101 508 q 85 694 96 649 q 174 688 136 688 q 254 694 214 688 q 258 635 258 674 q 257 610 258 626 q 254 583 254 589 q 257 572 254 572 q 272 597 258 572 q 286 625 276 607 q 465 710 346 710 q 608 654 558 710 q 657 501 657 599 l 657 492 q 657 393 657 467 q 656 278 656 321 q 658 0 656 94 z "},"ó":{"ha":724,"x_min":67,"x_max":660,"o":"m 551 975 q 386 776 426 836 q 332 781 349 781 q 260 776 290 781 q 360 975 268 799 q 456 981 424 981 q 551 975 497 981 m 660 349 q 585 76 660 171 q 367 -19 510 -19 q 67 346 67 -19 q 142 617 67 521 q 364 714 218 714 q 584 619 508 714 q 660 349 660 525 m 496 347 q 465 536 496 479 q 364 593 433 593 q 264 538 294 593 q 231 340 231 478 q 364 101 231 101 q 496 347 496 101 z "},"ò":{"ha":724,"x_min":67,"x_max":660,"o":"m 451 782 q 392 785 429 785 q 336 782 364 785 q 168 985 282 851 q 260 988 206 988 q 358 985 313 988 q 451 782 432 817 m 660 349 q 585 76 660 171 q 367 -19 510 -19 q 67 346 67 -19 q 142 617 67 521 q 364 714 218 714 q 584 619 508 714 q 660 349 660 525 m 496 347 q 465 536 496 479 q 364 593 433 593 q 264 538 294 593 q 231 340 231 478 q 364 101 231 101 q 496 347 496 101 z "},"ô":{"ha":724,"x_min":67,"x_max":660,"o":"m 578 781 q 506 785 536 785 q 444 781 486 785 q 385 853 428 806 q 371 874 383 854 q 356 886 364 886 q 339 874 347 886 q 326 853 328 854 q 268 781 286 808 q 213 785 243 785 q 135 781 175 785 q 275 978 189 853 q 360 975 306 975 q 436 978 410 975 q 578 781 494 897 m 660 349 q 585 76 660 171 q 367 -19 510 -19 q 67 346 67 -19 q 142 617 67 521 q 364 714 218 714 q 584 619 508 714 q 660 349 660 525 m 496 347 q 465 536 496 479 q 364 593 433 593 q 264 538 294 593 q 231 340 231 478 q 364 101 231 101 q 496 347 496 101 z "},"ö":{"ha":724,"x_min":67,"x_max":660,"o":"m 578 811 q 503 815 550 815 q 422 811 457 815 q 425 885 425 838 q 422 965 425 933 q 504 961 457 961 q 578 965 550 961 q 575 885 575 933 q 578 811 575 838 m 306 811 q 226 814 281 814 q 149 811 174 814 q 151 886 151 839 q 149 965 151 933 q 229 963 179 963 q 306 965 278 963 q 301 889 301 926 q 306 811 301 850 m 660 349 q 585 76 660 171 q 367 -19 510 -19 q 67 346 67 -19 q 142 617 67 521 q 364 714 218 714 q 584 619 508 714 q 660 349 660 525 m 496 347 q 465 536 496 479 q 364 593 433 593 q 264 538 294 593 q 231 340 231 478 q 364 101 231 101 q 496 347 496 101 z "},"õ":{"ha":724,"x_min":67,"x_max":660,"o":"m 597 965 l 596 949 q 556 840 590 882 q 457 793 518 793 q 353 823 417 793 q 264 853 290 853 q 208 790 219 853 q 165 793 194 793 q 117 790 136 793 l 118 808 q 165 918 124 874 q 261 963 206 963 q 365 932 303 963 q 453 901 426 901 q 508 965 496 901 q 556 961 535 961 q 597 965 576 961 m 660 349 q 585 76 660 171 q 367 -19 510 -19 q 67 346 67 -19 q 142 617 67 521 q 364 714 218 714 q 584 619 508 714 q 660 349 660 525 m 496 347 q 465 536 496 479 q 364 593 433 593 q 264 538 294 593 q 231 340 231 478 q 364 101 231 101 q 496 347 496 101 z "},"ú":{"ha":757,"x_min":97,"x_max":671,"o":"m 572 975 q 406 776 508 904 q 351 781 368 781 q 279 776 310 781 q 379 975 288 799 q 475 981 443 981 q 572 975 518 981 m 671 1 q 581 8 624 8 q 503 1 538 8 q 501 56 501 10 q 503 83 501 61 q 504 114 504 104 q 499 125 504 125 q 483 94 497 125 q 451 44 469 63 q 292 -14 393 -14 q 147 44 196 -14 q 99 201 97 103 q 100 428 100 394 q 97 697 100 606 q 185 689 154 689 q 264 697 219 689 q 260 424 260 585 q 263 231 260 357 q 354 110 265 110 q 443 146 408 110 q 488 238 478 182 q 494 375 494 281 q 492 697 494 544 q 575 690 538 690 q 657 697 607 690 q 654 433 654 622 q 657 169 654 250 q 671 1 661 51 z "},"ù":{"ha":757,"x_min":97,"x_max":671,"o":"m 464 782 q 404 785 442 785 q 350 782 378 785 q 181 985 310 833 q 272 988 218 988 q 371 985 325 988 q 464 782 444 817 m 671 1 q 581 8 624 8 q 503 1 538 8 q 501 56 501 10 q 503 83 501 61 q 504 114 504 104 q 499 125 504 125 q 483 94 497 125 q 451 44 469 63 q 292 -14 393 -14 q 147 44 196 -14 q 99 201 97 103 q 100 428 100 394 q 97 697 100 606 q 185 689 154 689 q 264 697 219 689 q 260 424 260 585 q 263 231 260 357 q 354 110 265 110 q 443 146 408 110 q 488 238 478 182 q 494 375 494 281 q 492 697 494 544 q 575 690 538 690 q 657 697 607 690 q 654 433 654 622 q 657 169 654 250 q 671 1 661 51 z "},"û":{"ha":757,"x_min":97,"x_max":671,"o":"m 600 781 q 526 785 558 785 q 465 781 507 785 q 407 853 446 811 q 393 874 406 854 q 378 886 386 886 q 361 874 369 886 q 349 853 350 854 q 290 781 308 808 q 235 785 265 785 q 156 781 196 785 q 297 978 210 853 q 379 975 326 975 q 458 978 431 975 q 600 781 517 897 m 671 1 q 581 8 624 8 q 503 1 538 8 q 501 56 501 10 q 503 83 501 61 q 504 114 504 104 q 499 125 504 125 q 483 94 497 125 q 451 44 469 63 q 292 -14 393 -14 q 147 44 196 -14 q 99 201 97 103 q 100 428 100 394 q 97 697 100 606 q 185 689 154 689 q 264 697 219 689 q 260 424 260 585 q 263 231 260 357 q 354 110 265 110 q 443 146 408 110 q 488 238 478 182 q 494 375 494 281 q 492 697 494 544 q 575 690 538 690 q 657 697 607 690 q 654 433 654 622 q 657 169 654 250 q 671 1 661 51 z "},"ü":{"ha":757,"x_min":97,"x_max":671,"o":"m 588 811 q 513 815 560 815 q 432 811 467 815 q 435 885 435 838 q 432 965 435 933 q 514 961 467 961 q 588 965 560 961 q 585 885 585 933 q 588 811 585 838 m 314 811 q 236 814 289 814 q 158 811 183 814 q 161 886 161 839 q 158 965 161 933 q 239 963 189 963 q 314 965 286 963 q 311 889 311 939 q 314 811 311 838 m 671 1 q 581 8 624 8 q 503 1 538 8 q 501 56 501 10 q 503 83 501 61 q 504 114 504 104 q 499 125 504 125 q 483 94 497 125 q 451 44 469 63 q 292 -14 393 -14 q 147 44 196 -14 q 99 201 97 103 q 100 428 100 394 q 97 697 100 606 q 185 689 154 689 q 264 697 219 689 q 260 424 260 585 q 263 231 260 357 q 354 110 265 110 q 443 146 408 110 q 488 238 478 182 q 494 375 494 281 q 492 697 494 544 q 575 690 538 690 q 657 697 607 690 q 654 433 654 622 q 657 169 654 250 q 671 1 661 51 z "},"°":{"ha":564,"x_min":64,"x_max":501,"o":"m 501 761 q 437 600 501 667 q 281 533 372 533 q 128 598 193 533 q 64 758 64 663 q 128 918 64 851 q 283 985 193 985 q 438 919 374 985 q 501 761 501 854 m 404 760 q 368 849 404 813 q 282 885 332 885 q 197 849 232 885 q 161 760 161 813 q 197 672 161 708 q 282 635 232 635 q 369 672 333 635 q 404 760 404 708 z "},"®":{"ha":1094,"x_min":43,"x_max":1050,"o":"m 1050 486 q 908 127 1050 269 q 546 -15 767 -15 q 184 127 325 -15 q 43 486 43 269 q 185 845 43 703 q 547 988 326 988 q 909 846 768 988 q 1050 486 1050 704 m 944 486 q 833 776 944 661 q 546 892 722 892 q 260 777 369 892 q 150 486 150 663 q 260 195 150 310 q 546 81 371 81 q 833 196 722 81 q 944 486 944 311 m 760 207 q 710 211 733 211 q 654 208 678 211 q 600 407 631 356 q 519 443 578 443 l 485 443 q 456 421 456 443 q 458 207 454 299 q 410 211 432 211 q 361 207 390 211 l 364 493 q 361 775 364 557 q 447 772 394 772 q 505 774 467 772 q 561 775 543 775 q 704 729 654 775 q 749 615 749 688 q 728 538 749 572 q 665 490 704 499 q 635 478 635 483 q 661 458 635 471 q 706 406 688 446 q 760 207 726 360 m 647 613 q 553 689 647 689 l 475 689 q 457 672 457 689 q 456 539 456 593 q 475 528 456 528 l 517 528 q 608 539 583 528 q 647 613 647 557 z "},"©":{"ha":1094,"x_min":43,"x_max":1050,"o":"m 1050 486 q 909 126 1050 268 q 546 -15 768 -15 q 184 127 325 -15 q 43 486 43 269 q 185 845 43 703 q 547 988 326 988 q 909 846 768 988 q 1050 486 1050 704 m 944 486 q 833 776 944 661 q 546 892 722 892 q 260 777 369 892 q 150 486 150 663 q 260 195 150 310 q 546 81 371 81 q 833 196 722 81 q 944 486 944 311 m 788 408 q 712 250 775 307 q 556 193 649 193 q 372 271 446 193 q 293 488 293 353 q 369 704 293 624 q 553 781 442 781 q 701 729 642 781 q 781 574 767 675 q 733 578 761 578 q 679 574 700 578 q 551 690 661 690 q 446 640 488 690 q 400 489 400 585 q 447 338 400 393 q 556 285 490 285 q 685 410 668 285 q 736 403 713 403 q 788 408 765 403 z "},"™":{"ha":883,"x_min":49,"x_max":822,"o":"m 822 556 q 781 560 800 560 q 736 554 764 560 q 739 776 739 649 l 739 814 q 740 831 739 818 q 742 847 742 843 q 736 856 742 856 q 726 828 736 856 q 642 556 671 663 q 603 558 617 558 q 567 556 589 558 q 485 829 529 699 q 475 854 476 854 q 471 847 471 854 q 472 831 471 844 q 472 814 472 817 l 472 772 q 474 554 472 601 q 433 560 446 560 q 392 556 414 560 q 396 747 396 672 q 392 965 396 814 q 453 963 418 963 q 517 965 486 963 q 594 721 540 879 q 600 696 596 718 q 607 682 603 682 q 614 696 611 682 q 619 721 618 717 q 696 965 663 843 q 761 963 743 963 q 822 965 785 963 q 819 764 819 878 q 822 556 819 649 m 349 890 q 257 893 285 893 q 242 878 242 893 l 242 743 q 243 556 242 667 q 200 558 215 558 q 153 556 185 558 q 156 743 156 664 l 156 879 q 140 893 156 893 q 49 890 68 893 q 51 928 51 915 q 49 965 51 939 q 208 963 132 963 q 349 965 286 963 q 346 926 346 943 q 349 890 346 910 z "},"≠":{"ha":811,"x_min":0,"x_max":0,"o":""},"±":{"ha":806,"x_min":72,"x_max":733,"o":"m 733 361 q 514 365 561 365 l 483 365 q 465 349 465 365 q 465 335 465 344 q 467 322 467 325 q 471 131 468 176 q 399 136 435 136 q 335 131 363 136 q 340 321 339 189 q 342 335 340 324 q 342 349 342 343 q 325 365 342 365 q 311 365 321 365 q 296 364 300 364 q 72 361 126 363 q 76 431 76 389 q 72 499 76 469 q 294 493 217 493 q 308 492 299 493 q 324 492 318 492 q 340 510 340 492 q 340 525 340 515 q 339 539 339 536 q 335 728 336 678 q 407 724 376 724 q 471 728 440 724 q 467 538 468 672 q 465 525 467 535 q 465 511 465 517 q 485 492 465 492 q 500 492 490 492 q 513 493 510 493 q 733 499 608 496 q 729 429 729 474 q 733 361 729 388 m 721 -53 q 407 -49 586 -49 q 81 -53 224 -49 q 83 8 83 -25 q 81 76 83 42 q 400 72 231 72 q 721 76 565 72 q 717 18 717 54 q 721 -53 717 -18 z "},"µ":{"ha":801,"x_min":108,"x_max":688,"o":"m 688 1 q 603 8 644 8 q 526 1 569 8 q 526 46 526 1 q 528 70 526 50 q 529 96 529 90 q 525 103 529 100 q 503 68 517 90 q 363 -7 451 -7 q 274 25 324 -7 q 269 21 271 25 q 274 -64 269 25 q 278 -229 276 -157 q 199 -224 242 -224 q 108 -229 157 -224 l 111 394 q 110 694 111 618 q 197 686 160 686 q 278 694 239 686 q 272 407 272 518 q 276 260 272 403 q 289 175 278 206 q 376 122 308 122 q 464 157 431 122 q 514 311 513 208 l 514 501 q 513 694 514 625 q 590 688 546 688 q 681 694 632 688 q 676 406 676 533 q 678 231 676 346 q 688 1 679 115 z "},"μ":{"ha":801,"x_min":108,"x_max":688,"o":"m 688 1 q 603 8 644 8 q 526 1 569 8 q 526 46 526 1 q 528 70 526 50 q 529 96 529 90 q 525 103 529 100 q 503 68 517 90 q 363 -7 451 -7 q 274 25 324 -7 q 269 21 271 25 q 274 -64 269 25 q 278 -229 276 -157 q 199 -224 242 -224 q 108 -229 157 -224 l 111 394 q 110 694 111 618 q 197 686 160 686 q 278 694 239 686 q 272 407 272 518 q 276 260 272 403 q 289 175 278 206 q 376 122 308 122 q 464 157 431 122 q 514 311 513 208 l 514 501 q 513 694 514 625 q 590 688 546 688 q 681 694 632 688 q 676 406 676 533 q 678 231 676 346 q 688 1 679 115 z "},"¬":{"ha":806,"x_min":69,"x_max":735,"o":"m 735 99 q 665 101 701 101 q 597 99 628 101 q 601 260 601 172 q 600 339 601 314 q 554 381 597 379 q 383 383 485 383 q 69 379 385 383 q 72 449 72 404 q 69 515 72 493 q 408 511 196 511 q 735 515 622 511 q 729 296 729 407 q 735 99 729 185 z "}," ":{"ha":868,"x_min":0,"x_max":0,"o":""},"À":{"ha":831,"x_min":22,"x_max":807,"o":"m 517 1019 q 456 1022 494 1022 q 401 1019 429 1022 q 232 1224 350 1086 q 324 1226 269 1226 q 422 1224 376 1226 q 517 1019 493 1063 m 807 -3 q 721 4 768 4 q 628 -3 678 4 q 578 186 608 88 q 546 208 571 207 q 394 213 444 213 q 278 208 379 213 q 238 186 244 207 q 188 -3 208 92 q 107 4 143 4 q 22 -3 63 4 q 169 488 96 242 q 303 965 267 815 q 424 960 361 960 q 528 965 478 960 q 807 -3 574 771 m 539 346 q 531 369 539 339 q 429 739 494 503 q 418 796 425 753 q 408 815 415 815 q 394 782 401 815 q 386 739 390 760 q 336 542 361 640 q 276 349 307 421 q 275 342 275 344 q 289 336 276 336 q 349 338 308 336 q 413 340 390 340 q 470 338 432 340 q 526 336 508 336 q 539 346 539 336 z "},"Ã":{"ha":831,"x_min":22,"x_max":807,"o":"m 657 1207 l 656 1190 q 615 1082 650 1124 q 517 1036 578 1036 q 413 1066 476 1036 q 324 1096 350 1096 q 267 1032 278 1096 q 225 1036 246 1036 q 176 1032 206 1036 l 178 1051 q 224 1161 182 1117 q 321 1206 265 1206 q 424 1175 363 1206 q 513 1144 486 1144 q 568 1207 556 1144 q 615 1203 594 1203 q 657 1207 636 1203 m 807 -3 q 721 4 768 4 q 628 -3 678 4 q 578 186 608 88 q 546 208 571 207 q 394 213 444 213 q 278 208 379 213 q 238 186 244 207 q 188 -3 208 92 q 107 4 143 4 q 22 -3 63 4 q 169 488 96 242 q 303 965 267 815 q 424 960 361 960 q 528 965 478 960 q 807 -3 574 771 m 539 346 q 531 369 539 339 q 429 739 494 503 q 418 796 425 753 q 408 815 415 815 q 394 782 401 815 q 386 739 390 760 q 336 542 361 640 q 276 349 307 421 q 275 342 275 344 q 289 336 276 336 q 349 338 308 336 q 413 340 390 340 q 470 338 432 340 q 526 336 508 336 q 539 346 539 336 z "},"Õ":{"ha":861,"x_min":69,"x_max":793,"o":"m 657 1207 l 656 1190 q 615 1082 650 1124 q 517 1036 578 1036 q 413 1066 476 1036 q 324 1096 350 1096 q 267 1032 278 1096 q 225 1036 246 1036 q 176 1032 206 1036 l 178 1051 q 224 1161 182 1117 q 321 1206 265 1206 q 424 1175 363 1206 q 513 1144 486 1144 q 568 1207 556 1144 q 615 1203 594 1203 q 657 1207 636 1203 m 793 475 q 703 101 793 219 q 432 -18 613 -18 q 69 479 69 -18 q 432 978 69 978 q 703 856 614 978 q 793 475 793 733 m 622 472 q 432 846 622 846 q 289 765 333 846 q 240 471 240 678 q 431 114 240 114 q 622 472 622 114 z "},"÷":{"ha":806,"x_min":56,"x_max":750,"o":"m 494 640 q 467 571 494 600 q 401 542 440 542 q 335 570 363 542 q 307 639 307 599 q 335 708 307 679 q 401 738 363 738 q 467 709 440 738 q 494 640 494 681 m 750 297 q 461 303 643 303 q 56 297 275 303 q 60 368 60 332 q 56 439 60 406 q 431 435 226 435 q 750 439 631 435 q 744 368 744 404 q 750 297 744 333 m 496 93 q 468 24 496 53 q 401 -4 440 -4 q 335 24 363 -4 q 307 93 307 53 q 335 163 307 133 q 401 192 363 192 q 468 163 440 192 q 496 93 496 133 z "},"ÿ":{"ha":649,"x_min":21,"x_max":628,"o":"m 536 811 q 463 815 508 815 q 382 811 417 815 q 385 885 385 838 q 382 965 385 933 q 464 961 417 961 q 536 965 508 961 q 533 885 533 933 q 536 811 533 838 m 264 811 q 185 814 239 814 q 108 811 133 814 q 111 886 111 839 q 108 965 111 933 q 189 963 139 963 q 264 965 236 963 q 261 889 261 939 q 264 811 261 838 m 628 694 q 408 -6 586 569 q 326 -192 368 -135 q 171 -269 267 -269 q 60 -256 119 -269 q 65 -192 65 -225 q 60 -125 65 -165 q 143 -139 103 -139 q 217 -108 189 -139 q 244 -29 244 -78 q 210 111 244 -1 q 21 694 93 486 q 117 690 71 690 q 193 694 169 690 q 313 263 231 547 q 326 196 318 238 q 335 186 329 186 q 342 196 340 186 q 354 261 346 221 q 413 481 379 343 q 467 694 456 651 q 539 689 494 689 q 628 694 575 689 z "},"Ÿ":{"ha":774,"x_min":15,"x_max":771,"o":"m 599 1040 q 524 1044 571 1044 q 443 1040 478 1044 q 446 1115 446 1067 q 443 1194 446 1163 q 525 1190 478 1190 q 599 1194 571 1190 q 596 1115 596 1163 q 599 1040 596 1067 m 326 1040 q 247 1044 289 1044 q 169 1040 207 1044 q 172 1117 172 1068 q 169 1196 172 1164 q 250 1193 200 1193 q 326 1196 299 1193 q 322 1119 322 1157 q 326 1040 322 1079 m 771 964 q 496 438 664 765 q 467 301 467 376 q 471 0 467 282 q 396 7 432 7 q 314 0 364 7 q 317 297 317 189 q 288 436 317 375 q 15 964 232 551 q 104 958 63 958 q 188 964 139 958 q 365 613 239 853 q 386 551 375 594 q 399 532 392 532 q 410 551 404 532 q 436 614 418 582 q 613 964 554 831 q 686 958 657 958 q 771 964 714 958 z "},"Â":{"ha":831,"x_min":22,"x_max":807,"o":"m 629 1018 q 557 1022 588 1022 q 496 1018 538 1022 q 436 1092 476 1047 q 424 1111 435 1093 q 408 1124 417 1124 q 392 1112 400 1124 q 378 1090 385 1100 q 319 1018 338 1046 q 265 1022 294 1022 q 186 1018 226 1022 q 328 1217 240 1090 q 410 1213 374 1213 q 488 1217 447 1213 q 629 1018 546 1135 m 807 -3 q 721 4 768 4 q 628 -3 678 4 q 578 186 608 88 q 546 208 571 207 q 394 213 444 213 q 278 208 379 213 q 238 186 244 207 q 188 -3 208 92 q 107 4 143 4 q 22 -3 63 4 q 169 488 96 242 q 303 965 267 815 q 424 960 361 960 q 528 965 478 960 q 807 -3 574 771 m 539 346 q 531 369 539 339 q 429 739 494 503 q 418 796 425 753 q 408 815 415 815 q 394 782 401 815 q 386 739 390 760 q 336 542 361 640 q 276 349 307 421 q 275 342 275 344 q 289 336 276 336 q 349 338 308 336 q 413 340 390 340 q 470 338 432 340 q 526 336 508 336 q 539 346 539 336 z "},"Ê":{"ha":725,"x_min":104,"x_max":640,"o":"m 592 1019 q 519 1024 550 1024 q 458 1019 500 1024 q 399 1093 439 1049 q 386 1113 397 1094 q 371 1125 379 1125 q 355 1113 363 1125 q 340 1092 347 1101 q 282 1019 300 1047 q 228 1024 257 1024 q 149 1019 189 1024 q 290 1218 203 1092 q 372 1213 340 1213 q 450 1218 404 1213 q 592 1019 508 1136 m 640 0 q 388 6 544 6 q 104 0 233 6 q 108 454 108 192 q 104 963 108 715 q 358 958 222 958 q 626 963 500 958 q 622 889 622 917 q 626 817 622 853 q 313 822 482 822 q 283 819 290 822 q 275 799 276 815 q 269 607 269 736 l 269 576 q 301 551 269 551 l 326 551 q 611 557 442 551 q 608 479 608 522 q 611 410 608 435 q 372 415 506 415 q 329 415 353 415 q 300 414 304 414 q 269 388 269 414 l 269 363 q 272 169 269 260 q 278 147 272 151 q 307 143 285 143 q 640 150 492 143 q 638 71 638 115 q 640 0 638 25 z "},"Á":{"ha":831,"x_min":22,"x_max":807,"o":"m 599 1214 q 432 1015 535 1143 q 378 1019 394 1019 q 306 1015 336 1019 q 406 1214 314 1038 q 501 1218 453 1218 q 599 1214 558 1218 m 807 -3 q 721 4 768 4 q 628 -3 678 4 q 578 186 608 88 q 546 208 571 207 q 394 213 444 213 q 278 208 379 213 q 238 186 244 207 q 188 -3 208 92 q 107 4 143 4 q 22 -3 63 4 q 169 488 96 242 q 303 965 267 815 q 424 960 361 960 q 528 965 478 960 q 807 -3 574 771 m 539 346 q 531 369 539 339 q 429 739 494 503 q 418 796 425 753 q 408 815 415 815 q 394 782 401 815 q 386 739 390 760 q 336 542 361 640 q 276 349 307 421 q 275 342 275 344 q 289 336 276 336 q 349 338 308 336 q 413 340 390 340 q 470 338 432 340 q 526 336 508 336 q 539 346 539 336 z "},"Ë":{"ha":725,"x_min":104,"x_max":640,"o":"m 576 1040 q 503 1044 549 1044 q 422 1040 457 1044 q 425 1114 425 1067 q 422 1194 425 1163 q 504 1190 457 1190 q 576 1194 549 1190 q 574 1114 574 1163 q 576 1040 574 1067 m 304 1040 q 225 1043 279 1043 q 149 1040 174 1043 q 151 1115 151 1068 q 149 1194 151 1163 q 229 1193 164 1193 q 304 1194 290 1193 q 301 1119 301 1168 q 304 1040 301 1067 m 640 0 q 388 6 544 6 q 104 0 233 6 q 108 454 108 192 q 104 963 108 715 q 358 958 222 958 q 626 963 500 958 q 622 889 622 917 q 626 817 622 853 q 313 822 482 822 q 283 819 290 822 q 275 799 276 815 q 269 607 269 736 l 269 576 q 301 551 269 551 l 326 551 q 611 557 442 551 q 608 479 608 522 q 611 410 608 435 q 372 415 506 415 q 329 415 353 415 q 300 414 304 414 q 269 388 269 414 l 269 363 q 272 169 269 260 q 278 147 272 151 q 307 143 285 143 q 640 150 492 143 q 638 71 638 115 q 640 0 638 25 z "},"È":{"ha":725,"x_min":104,"x_max":640,"o":"m 472 1021 q 413 1024 450 1024 q 357 1021 385 1024 q 189 1224 303 1090 q 281 1226 226 1226 q 379 1224 333 1226 q 472 1021 453 1056 m 640 0 q 388 6 544 6 q 104 0 233 6 q 108 454 108 192 q 104 963 108 715 q 358 958 222 958 q 626 963 500 958 q 622 889 622 917 q 626 817 622 853 q 313 822 482 822 q 283 819 290 822 q 275 799 276 815 q 269 607 269 736 l 269 576 q 301 551 269 551 l 326 551 q 611 557 442 551 q 608 479 608 522 q 611 410 608 435 q 372 415 506 415 q 329 415 353 415 q 300 414 304 414 q 269 388 269 414 l 269 363 q 272 169 269 260 q 278 147 272 151 q 307 143 285 143 q 640 150 492 143 q 638 71 638 115 q 640 0 638 25 z "},"Í":{"ha":385,"x_min":90,"x_max":382,"o":"m 382 1221 q 217 1022 257 1082 q 163 1026 179 1026 q 90 1022 121 1026 q 190 1221 99 1044 q 286 1226 254 1226 q 382 1221 328 1226 m 279 0 q 197 7 240 7 q 106 0 156 7 q 108 453 108 150 q 106 964 108 751 q 192 960 147 960 q 279 964 231 960 l 276 460 q 279 0 276 203 z "},"Î":{"ha":385,"x_min":-29,"x_max":414,"o":"m 414 1019 q 342 1024 372 1024 q 279 1019 321 1024 q 221 1092 260 1050 q 207 1113 219 1093 q 192 1125 200 1125 q 175 1113 183 1125 q 163 1092 164 1093 q 104 1019 122 1047 q 49 1024 79 1024 q -29 1019 11 1024 q 111 1218 25 1092 q 193 1213 163 1213 q 272 1218 224 1213 q 414 1019 331 1136 m 279 0 q 197 7 240 7 q 106 0 156 7 q 108 453 108 150 q 106 964 108 751 q 192 960 147 960 q 279 964 231 960 l 276 460 q 279 0 276 203 z "},"Ï":{"ha":385,"x_min":-22,"x_max":407,"o":"m 407 1042 q 332 1046 379 1046 q 251 1042 286 1046 q 254 1115 254 1068 q 251 1196 254 1164 q 333 1192 286 1192 q 407 1196 379 1192 q 404 1115 404 1164 q 407 1042 404 1068 m 135 1042 q 56 1044 110 1044 q -22 1042 3 1044 q -19 1117 -19 1069 q -22 1196 -19 1164 q 58 1193 8 1193 q 135 1196 107 1193 q 131 1119 131 1157 q 135 1042 131 1081 m 279 0 q 197 7 240 7 q 106 0 156 7 q 108 453 108 150 q 106 964 108 751 q 192 960 147 960 q 279 964 231 960 l 276 460 q 279 0 276 203 z "},"Ì":{"ha":385,"x_min":-1,"x_max":282,"o":"m 282 1028 q 222 1031 260 1031 q 168 1028 196 1031 q -1 1231 128 1079 q 90 1235 56 1235 q 189 1231 121 1235 q 282 1028 263 1063 m 279 0 q 197 7 240 7 q 106 0 156 7 q 108 453 108 150 q 106 964 108 751 q 192 960 147 960 q 279 964 231 960 l 276 460 q 279 0 276 203 z "},"Ó":{"ha":861,"x_min":69,"x_max":793,"o":"m 651 1214 q 485 1015 588 1143 q 432 1019 447 1019 q 360 1015 390 1019 q 460 1214 368 1038 q 556 1218 507 1218 q 651 1214 611 1218 m 793 475 q 703 101 793 219 q 432 -18 613 -18 q 69 479 69 -18 q 432 978 69 978 q 703 856 614 978 q 793 475 793 733 m 622 472 q 432 846 622 846 q 289 765 333 846 q 240 471 240 678 q 431 114 240 114 q 622 472 622 114 z "},"Ô":{"ha":861,"x_min":69,"x_max":793,"o":"m 643 1018 q 571 1022 601 1022 q 510 1018 551 1022 q 450 1092 490 1047 q 436 1111 450 1092 q 421 1124 429 1124 q 404 1111 413 1124 q 392 1090 393 1092 q 333 1018 351 1046 q 278 1022 308 1022 q 200 1018 240 1022 q 342 1217 254 1090 q 422 1213 385 1213 q 501 1217 460 1213 q 643 1018 560 1135 m 793 475 q 703 101 793 219 q 432 -18 613 -18 q 69 479 69 -18 q 432 978 69 978 q 703 856 614 978 q 793 475 793 733 m 622 472 q 432 846 622 846 q 289 765 333 846 q 240 471 240 678 q 431 114 240 114 q 622 472 622 114 z "},"Ò":{"ha":861,"x_min":69,"x_max":793,"o":"m 496 1019 q 436 1022 474 1022 q 382 1019 410 1022 q 213 1224 331 1086 q 304 1226 250 1226 q 403 1224 357 1226 q 496 1019 440 1138 m 793 475 q 703 101 793 219 q 432 -18 613 -18 q 69 479 69 -18 q 432 978 69 978 q 703 856 614 978 q 793 475 793 733 m 622 472 q 432 846 622 846 q 289 765 333 846 q 240 471 240 678 q 431 114 240 114 q 622 472 622 114 z "},"Ú":{"ha":856,"x_min":106,"x_max":753,"o":"m 621 1214 q 454 1015 557 1143 q 401 1019 417 1019 q 328 1015 358 1019 q 428 1214 336 1038 q 525 1218 475 1218 q 621 1214 581 1218 m 753 311 q 426 -18 753 -18 q 106 304 106 -18 l 106 314 q 107 492 106 372 q 108 676 108 613 q 106 964 108 828 q 196 958 153 958 q 278 964 242 958 q 274 603 274 822 q 276 307 274 501 q 431 124 279 124 q 549 171 514 124 q 583 313 582 214 q 586 625 586 463 q 582 964 586 838 q 668 958 625 958 q 753 964 718 958 q 750 708 750 861 q 751 513 750 643 q 753 318 753 383 l 753 311 z "},"Û":{"ha":856,"x_min":106,"x_max":753,"o":"m 646 1019 q 574 1024 604 1024 q 513 1019 554 1024 q 453 1093 493 1049 q 440 1113 451 1094 q 425 1125 433 1125 q 409 1113 417 1125 q 394 1092 401 1101 q 336 1019 354 1047 q 282 1024 311 1024 q 203 1019 243 1024 q 344 1218 257 1092 q 426 1213 390 1213 q 504 1218 460 1213 q 646 1019 563 1136 m 753 311 q 426 -18 753 -18 q 106 304 106 -18 l 106 314 q 107 492 106 372 q 108 676 108 613 q 106 964 108 828 q 196 958 153 958 q 278 964 242 958 q 274 603 274 822 q 276 307 274 501 q 431 124 279 124 q 549 171 514 124 q 583 313 582 214 q 586 625 586 463 q 582 964 586 838 q 668 958 625 958 q 753 964 718 958 q 750 708 750 861 q 751 513 750 643 q 753 318 753 383 l 753 311 z "},"Ù":{"ha":856,"x_min":106,"x_max":753,"o":"m 496 1019 q 436 1022 474 1022 q 381 1019 408 1022 q 213 1224 315 1104 q 304 1226 250 1226 q 403 1224 357 1226 q 496 1019 440 1138 m 753 311 q 426 -18 753 -18 q 106 304 106 -18 l 106 314 q 107 492 106 372 q 108 676 108 613 q 106 964 108 828 q 196 958 153 958 q 278 964 242 958 q 274 603 274 822 q 276 307 274 501 q 431 124 279 124 q 549 171 514 124 q 583 313 582 214 q 586 625 586 463 q 582 964 586 838 q 668 958 625 958 q 753 964 718 958 q 750 708 750 861 q 751 513 750 643 q 753 318 753 383 l 753 311 z "},"€":{"ha":781,"x_min":24,"x_max":733,"o":"m 733 249 q 435 -14 707 -14 q 207 74 293 -14 q 108 293 128 154 q 93 315 106 315 q 58 313 81 315 q 24 310 31 310 q 28 368 28 342 q 24 424 28 392 q 83 419 88 419 q 96 426 96 419 q 94 447 96 432 q 93 469 93 461 q 94 497 93 479 q 96 522 96 515 q 83 528 96 528 q 24 525 75 528 q 28 582 28 557 q 24 638 28 606 q 89 633 74 633 q 104 642 101 633 q 108 661 107 651 q 442 972 167 972 q 721 861 636 972 q 650 728 683 810 q 449 838 582 838 q 271 663 301 838 q 267 642 267 639 q 290 632 267 632 l 353 632 q 606 636 518 632 q 553 525 575 589 q 322 528 439 528 l 279 528 q 258 522 261 528 q 256 493 256 515 l 256 449 q 258 424 256 428 q 279 419 261 419 l 322 419 q 500 422 389 419 q 451 310 472 375 q 324 314 315 314 l 289 314 q 268 304 268 314 q 272 286 268 307 q 438 111 307 111 q 549 150 514 111 q 583 253 576 182 q 674 244 610 244 q 733 249 714 244 z "}}}
